<?xml version="1.0" encoding="UTF-8"?>
<svg id="Layer_1" data-name="Layer 1" xmlns="http://www.w3.org/2000/svg" viewBox="0 0 975.23 1103.94">
  <defs>
    <style>
      .cls-1, .cls-2 {
        fill: #000002;
      }

      .cls-2 {
        stroke: #000;
        stroke-miterlimit: 10;
      }
    </style>
  </defs>
  <g id="Object">
    <g>
      <path class="cls-1" d="m4.76,996.07c1.4,3.29,3.4,6.26,5.7,8.93-2.8,5.96-3.2,13.04-1.2,19.3.8,2.57,2,4.83,3.4,6.88-11.7,8.32-17.6,28.44-7.5,39.22,9,9.55,26.2,10.27,28.7-5.85.9-5.75-1.6-10.47-8-10.06-5.7.41-6.8,5.44-7,10.37-.1,2.36,3.5,2.05,3.6-.41,7.3-3.08,9.5-1.85,6.6,3.59-4,5.24-8.6,6.88-13.8,4.72-3.3-1.13-6.8-3.59-8.8-6.37-5.9-8.11-2.1-21.66,4.2-28.75,1.3-1.44,2.7-2.67,4.3-3.7,4.2,4.31,9.8,7.08,15.9,8.73,8.8,2.46,17.5,2.46,25.9-.51.5.31,1.6,1.33,2.1,1.95l.6.62h0s.5.51.8,1.13c-2.7,8.73-2.9,17.25-.4,26.29,1.7,6.26,4.3,11.81,8.5,16.12-1,1.64-2.2,3.08-3.6,4.42-6.8,6.47-20,10.47-28,4.62-2.8-2.05-5.2-5.65-6.3-9.04-2.1-5.24-.7-9.96,4.4-14.17,5.3-2.98,6.5-.72,3.5,6.78-2.3.1-2.7,3.8-.3,3.7,4.8-.21,9.7-1.44,10-7.29.4-6.47-4.3-9.04-9.9-8.01-4.2.72-7.3,2.57-9.2,5.03-5.3,6.67-3,17.87,3.9,24.44,10.6,10.17,30.2,3.9,38.1-8.21,2,1.44,4.2,2.57,6.7,3.39,6.2,1.95,13.1,1.54,18.8-1.44,2.6,2.36,5.5,4.31,8.8,5.75,15.6,6.98,44.5-4.72,43.4-25.46-.2-4.72-2.5-12.63-8.5-11.19-5.7,1.44-5.3,8.73-.1,9.96,1.3.31,2.4-.31,3-1.13-.1,3.59-1,8.42-1.4,9.34-1.3,2.77-3.1,4.93-5.3,6.98-4.3,4-10.4,6.88-16.1,7.91-6.7,1.23-13.8-.92-19.4-5.03,1.9-1.64,3.6-3.59,5-5.96,4.9-8.62-2.8-17.97-11.6-18.17-.7,0-2.2.21-4,.62,1.1-21.97,23.4-19.3,21.7-3.29-.3,2.98-2.1,5.54.5,8.01,5,4.72,9.8-1.75,10.7-6.47,1.5-8.11-.9-4.93,4.3-4,1.4.31,3.1.21,4.5-.31,2.7-1.03,4.4-3.08,5.2-5.85.9-3.29-.1-7.29-1.9-9.96-1.6-2.36-3.3-2.98-5.2-3.59.6-.31,1.2-.51,1.4-.62,1.7-.92,2.2-3.8.4-4.83-6-3.59-13.7-4.83-21.1-3.9.7-4.72-1.8-7.5-5.2-9.14-1-8.01-1-16.22-1.9-24.13,0-.41-.4-.92-.4-.92-.2-.21-.5-.41-.9-.41-7.8-.82-15.8-.82-23.6-1.75-1.6-3.49-4.3-6.06-8.9-5.24.9-7.7-.5-15.5-4-21.66-1.1-1.85-3.8-1.33-4.7.51-.1.21-.3.82-.6,1.44-.6-1.95-1.3-3.7-3.6-5.34-2.7-1.85-6.5-2.77-9.7-1.85-2.7.82-4.7,2.57-5.7,5.44-.5,1.44-.5,3.18-.3,4.72,1,5.24,4.1,2.77-3.8,4.42-4.6.92-10.8,5.96-6.1,11.09,2.5,2.67,4.9.82,7.8.41,15.5-1.85,18.5,20.95-3,22.28.4-1.85.5-3.49.5-4.11-.3-9.04-9.4-16.84-17.8-11.71-2.3,1.44-4.2,3.18-5.8,5.13-4.1-5.75-6.2-12.94-5.2-19.92.9-5.75,3.6-12.12,7.5-16.63,2-2.26,4.1-4.21,6.7-5.54.9-.51,5.6-1.44,9.1-1.54-.9.72-1.4,1.75-1.1,3.08,1.3,5.34,8.4,5.65,9.7-.21,1.4-6.16-6.3-8.42-11-8.62-20-.72-31,29.06-24,44.97Zm39.6,43.12c-7.8.1-17.7-2.26-24-7.6,4.8-1.54,10-1.75,14.8-1.13,3.4.51,11,3.8,16.9,7.7-2.5.62-5.1.92-7.7,1.03Zm18.6,18.89c0-2.67.3-5.34.9-8.01,3.9,6.06,7.2,13.76,7.7,17.25.7,4.93.6,10.37-.9,15.2-5.3-6.26-7.7-16.33-7.7-24.44Zm34.7,11.81c1.6,1.33,6.2,6.26,2.3,11.29-.6,1.95-1.6,3.49-3.1,4.83-3.3-3.49-5.6-7.8-6.2-12.42-.2-1.44-.3-2.77-.4-4.11,3.3-.41,6.4-.31,7.4.41Zm-13.2,1.13c.5,2.67,1.3,5.34,2.4,7.8-1.1.21-2.3.21-2.9-.1-2.3-.82-1.6-4.52-.8-6.47.2-.41.7-.92,1.3-1.23Zm20.4-40.15c.1.21,0,1.03-.2,1.85-7.3,2.36-13.7,7.08-17.1,14.17-3.3,6.88-4.3,14.27-3.4,21.36-.3.21-.5.31-.7.51-2.1,2.05-3.4,6.37-2.7,9.24.8,2.98,4.3,3.49,7,2.57,1.4,2.88,3.1,5.44,5,7.91-6.1,2.46-13.8,1.13-18.8-2.67-.1-.1-.2-.1-.3-.21,2.9-7.8,2.5-17.04.3-24.75-1.2-4-4.2-11.81-8-17.15,3.5-8.11,9.9-14.58,18.9-16.63,4.2-.92,9.8-2.16,14.1-1.03,6.6,1.44,5.9,4.83,5.9,4.83Zm-4.5-30.6c.8,6.98.8,13.86,1.5,20.74-2.2-.51-4.5-.62-6.5-.62-6.3,0-12.7.82-17.8,3.59,2.3-5.54,3.3-11.91,3.2-18.38,0-2.05-.2-4.42-.7-6.67,6.7.62,13.6.72,20.3,1.33Zm-45.4,13.66c6.9-3.59,11.4-10.27,13.6-17.76.8-.21,1.6-.31,1.8-.21,0,0,3.3-.82,4.8,5.96,1.2,4.42,0,10.17-.9,14.48-1.9,9.24-8.1,15.91-15.9,19.61-5.2-3.8-12.8-6.78-16.8-8.01-7.5-2.16-16.4-2.46-24.1.62-.1-.1-.2-.21-.2-.31-3.8-5.13-5.1-13.04-2.8-19.3,2.4,1.95,4.9,3.7,7.7,5.03-.9,2.77-.4,6.37,2.6,7.19,2.8.72,7-.62,8.9-2.87.2-.21.3-.41.5-.72,7,.92,14.2-.21,20.8-3.7Zm-23.4,3.29c-.4.72-.8,1.23-1.2,1.44-1.9.82-5.5,1.54-6.3-.82-.2-.62-.3-1.95-.1-2.98,2.4,1.03,4.9,1.85,7.6,2.36Zm-10.2-15.71c4.8-4,9.7.62,11,2.26.7.92.9,4.21.6,7.5-1.3,0-2.6-.1-4-.31-4.5-.62-8.7-2.87-12.2-6.26,1.2-1.54,2.7-2.57,4.6-3.18Z"/>
      <path class="cls-1" d="m54.36,841.75c1.7,11.4,3,42.1-15.4,52.88-5.9,3.49-13.2,4.83-15.8,8.42-1.7,3.08-3,10.17-1.7,13.35.8.72,3.8-2.05,4.7-2.46-2.3,10.88,3,27.52,15.9,24.44-6.7-6.16-7.2-15.81-3.4-22.9,3.6-6.88,33.5-38.81,15.7-73.72Z"/>
      <path class="cls-1" d="m28.86,807.25c.2.1.4.21.7.31,12.8,5.75,21.9,23.92,23.1,27.41,5.7,16.22,6.3,41.58-10.8,50.93-3.2,1.75-8.9,3.39-12.4,1.54-2-1.13.1-2.67,2.1-3.9-.6.21-1.3.31-2,.31-1.8.1-3.6,0-5.4-.41-2.9-.51-6-1.85-7.8-4.31-1.7-2.26-2.7-5.65-2-8.52.3-1.13.9-2.57,1.9-3.29,1-.82,1.8-.62,2.8-.41.6-2.87,1.9-6.67,5.5-5.34.2.1.3.31.3.41.6,3.59-.2,7.5,2.1,10.68,2.7,3.7,7.3,3.59,11.3,2.87.9-.21,2.2.51,3.1.31.3-.1.6-.21.9-.1-1-.72-1.9-1.75-2-2.87,0-.31,0-1.03.3-1.03,3.9-.31,6.6-1.64,8.5-5.44.6-1.23,3.5-9.04,3-16.84-.2-2.57-1.9-16.33-8.1-25.77-4.6-7.08-11.2-12.42-15.5-15.61.1-.41.2-.62.4-.92Z"/>
      <path class="cls-1" d="m73.86,876.87c2-2.46,3.4-5.65,4.4-8.73.6-1.85,2.2-4.93,1.5-6.98-.1-.31-.5-.41-.8-.21-1.8,1.64-3.4,3.29-5.3,4.83-2.6,2.05-4.9,2.05-8,2.05-1,0-1.9.21-2.6-.41-.9-.82-.3-1.75-.1-2.98.2-1.95-.1-3.9-.4-5.96-.8-4.93-3.2-8.62-6.2-12.42-1.5-1.95-3.1-3.59-5-5.13-1.2-.92-2.5-2.05-4.1-1.95-.4,0-.5.51-.3.82,2.6,3.18,3.9,6.37,4.5,10.47.6,3.7.4,7.7.3,11.4-.1,3.59-1,6.98-1.3,10.47-.4,3.7-1.9,7.29-3.4,10.68-2.9,6.47-6,13.04-7.1,20.02-.5,3.18-.7,6.47-.2,9.75.2,1.54.2,4.11,1.2,5.54-.1.21-.1.31.1.51.1.1.2.21.3.41.2.31.7.31.9-.1.8-2.57,0-5.24.1-7.91.1-3.9,1.4-7.8,2.9-11.4s4.6-7.29,7.7-9.65c1.8-1.44,3.7-2.46,6.1-2.57,2.5-.1,3.9.72,5.6,2.57.3.31.7.21.9-.1,1.2-2.36.5-6.16-.8-8.42-.7-1.23-1.7-1.95-2.9-2.67-1-.51-2-.62-3-.92,2.7-1.44,6.5,2.36,9.1,2.46,2.2,0,4.4-1.64,5.9-3.49Z"/>
      <path class="cls-1" d="m72.96,970.4c.1-.21.1-.62-.2-.72-5.2-2.87-9.7-5.34-15.6-5.44-5.2-.1-9.5,1.64-13.7,4.72-3.7,2.77-6.6,6.98-6.5,11.81,0,3.39,1.7,6.78,4.1,9.14.5.82,1,1.54,1.7,2.16,2.4,2.26,6.6,3.08,9.5,1.44,2.2-1.33,3.1-4.31.9-6.06-1.3-1.03-2.7-.72-2.8.51-.9-1.23-1.1-4.21-1.1-5.24-.1-2.26.6-4,2-5.75,2.2-2.77,5.8-5.34,9.3-6.06,5.5-2.87,11.6-1.03,16.8,2.67-1.3-1.23-2.9-2.26-4.4-3.18Zm-7.3-3.29c-1.8-.41-3.6-.62-5.6-.41-8.8.82-18.7,4.83-20.8,14.68-.3,1.64-.2,3.49.3,5.34-1.3-2.16-2-4.72-1.7-7.29.7-5.24,3.9-10.37,8.7-11.29,7.9-1.44,9.9-2.87,13.5-2.57,2.1,0,3.9.72,5.6,1.54Z"/>
      <path class="cls-1" d="m86.46,896.58c0-.1,0-.21-.1-.31-.4-.41-.9-.82-1.4-1.23-.5-.51-1-1.03-1.6-1.44-1.3-1.03-2.6-1.75-4-2.16-3.9-1.85-8.2-2.57-12.5-1.54-1.3.31-2.5.82-3.7,1.44-1.4-.51-3,.82-4.1,1.54-3.5,2.26-6.5,5.24-9.1,8.52-5.1,6.06-8.7,13.55-9.1,21.56-.4,7.6,1,14.89,4.1,21.87,1.5,3.49,3.3,7.29,5.6,10.37,1.1,1.54,2.5,2.67,4,3.59,2,1.13,3.7,2.26,5.6,3.7.4.31.8-.1.8-.41,6,5.85,24.8,13.76,32.3,27.93,1.6,3.08,1.6,6.98.7,10.37-1.1,4-5.9,4.62-8.2,1.03-1.1-1.75-1.3-4-1.4-6.06,0-.1,0-.31-.1-.41.1-.82.5-1.44,1.5-1.95.8-.41,1.6-.41,2.4,0,.6.31,1.5,1.33.8,1.95-1,.82.2,2.57,1.2,1.64,2.6-2.36-.1-5.96-3-5.96-1.5,0-3.1.82-4,2.05-.8,1.13-.9,2.26-.8,3.49h0c0,.21,0,.41-.1.51h0v.21c0,.41,0,.72-.1,1.13.1.62.1,1.23.1,1.75,0,.21,0,.41.1.51,1,3.39,3.1,6.26,6.8,7.19,5,1.33,7.4-3.7,8.1-8.01,1.1-6.16-.9-12.42-4.4-17.66-.5-.51-1-1.03-1.5-1.44-3.2-3.08-6.7-5.54-10.1-8.11-2-1.13-3.8-2.26-5.5-3.8-20.5-13.66-24.6-31.01-18-48.87,7.9-21.46,17.6-17.66,21.8-15.71s4.1,7.29,1.8,6.16c-2.3-1.13-3.6,1.13-3.6,1.13-5,3.9-1.5,13.86,7.7,10.88,8.1-2.67,9.1-16.12,1-25.46Zm-25.4-4c-1.1.72-2.1,1.54-3,2.26-9.3,7.6-12.2,21.77-12.1,22.69-2.5,11.29-1.6,25.57,10,39.02,1.2,1.44,2.5,2.77,3.7,4-.8-.62-1.7-1.33-2.6-1.85-1.9-1.03-3.7-1.95-5.2-3.7-2.2-2.67-3.8-6.16-5.3-9.34-3-6.37-4.7-12.94-4.7-20.02,0-7.5,2.1-13.86,6.1-20.02,2.1-3.29,4.8-6.26,7.6-8.93.7-.51,3.4-3.08,5.5-4.11Z"/>
      <path class="cls-1" d="m68.16,969.69h0c-.3-.31-.4-.62-.6-.82-1.3-1.33-3.5-2.36-4.6-2.98-2.2-1.23-4.7-2.46-7.3-2.46s-5.4.41-7.8,1.44c-2,.82-4.4,3.08-4.8,5.44h0c-.4.21-.9.41-1.2.72h0c-.7-3.18-.3-6.26,2-8.73,2.1-2.26,5.1-3.08,8-2.87,3.4.31,7.4.72,10.4,2.57,1.6.92,2.9,2.26,4.2,3.59.7.72,1.2,1.54,1.6,2.36.7.62,1.3,1.33,1.6,2.16-.6-.31-1.1-.41-1.5-.41Z"/>
      <path class="cls-1" d="m59.36,971.64c-.7.21-1.3.41-1.9.72-1.1.41-2.1,1.23-2.7,2.36,1.1,2.36,2,2.98,3,1.75.3-.31.7-.1.8.21.3.51.3,1.03.1,1.44,0,.1,0,.21-.1.41l-.1.1c-.5.92-1.4,1.64-2.1,2.05-2.5,1.44-4.5.41-6.4-1.33-.1.1-.3.1-.5-.1-.9-.82-1-3.59.7-3.29.3.1.6.51.8.62.4.41.9.72,1.4,1.03,1.5.82,3.7,1.64,5,.51.1-.1.2-.21.3-.41h0c-1.6,1.03-4.1.72-4.3-1.75-.3-3.7,4-4.93,6.7-5.75.4-.1.7.21.7.51-.4.41-.9.62-1.4.92Z"/>
      <path class="cls-1" d="m183.26,1066.92c-6.9,3.7-16.4,2.98-22.2-4-3.2,13.14,12.8,18.89,23.5,16.84-.4.92-3.1,3.9-2.5,4.72,3.1,1.44,10,.31,13-1.44,3.5-2.57,5-10.06,8.5-16.02,10.9-18.69,40.7-16.63,51.8-14.58-33.6-19.1-65.4,10.99-72.1,14.48Z"/>
      <path class="cls-1" d="m288.26,1079.14q-.1-.21-.2-.51c-5.3-13.25-22.8-23-26.1-24.33-15.7-6.26-40.4-7.39-49.8,9.96-1.8,3.29-3.5,9.04-1.7,12.73,1,2.05,2.6,0,3.8-2.05-.2.62-.3,1.33-.3,2.05-.1,1.85,0,3.7.3,5.54.5,2.98,1.7,6.16,4,8.11,2.2,1.75,5.5,2.88,8.2,2.26,1.1-.31,2.5-.82,3.3-1.85s.7-1.85.5-2.88c2.8-.62,6.5-1.75,5.3-5.54-.1-.21-.2-.31-.4-.31-3.5-.72-7.3,0-10.4-2.46-3.5-2.77-3.4-7.6-2.6-11.71.2-.92-.5-2.26-.2-3.18.1-.31.2-.62.1-.92.6,1.03,1.7,1.95,2.8,2.16.3,0,1,0,1.1-.31.4-4,1.8-6.67,5.5-8.62,1.2-.62,8.9-3.39,16.4-2.67,2.5.21,15.9,2.36,25,8.83,6.8,4.93,11.8,11.5,14.7,16.02.2,0,.5-.1.7-.31Z"/>
      <path class="cls-1" d="m218.16,1037.86c.1,2.67,3.6,6.67,2.2,9.34-.3-1.03-.3-2.16-.8-3.08-.6-1.23-1.3-2.26-2.5-3.08-2.1-1.33-5.8-2.26-8.1-1.03-.4.21-.4.62-.2.92,1.7,1.75,2.5,3.18,2.3,5.75-.1,2.36-1.2,4.31-2.6,6.16-2.3,3.08-6,6.16-9.6,7.6-3.5,1.44-7.4,2.67-11.2,2.77-2.6,0-5.2-.82-7.7,0-.4.1-.4.62-.2.92.1.1.2.21.4.31.2.21.4.21.5.1,1.3,1.03,3.8,1.13,5.3,1.33,3.1.62,6.3.41,9.5,0,6.9-.92,13.4-4,19.7-6.78,3.3-1.44,6.8-2.98,10.5-3.29,3.4-.31,6.8-1.03,10.2-1.13,3.6,0,7.5-.1,11.1.51,4,.72,7,2.16,10,4.93.3.21.8.1.8-.31.1-1.54-1-2.98-1.8-4.21-1.4-2.05-3-3.7-4.9-5.24-3.7-3.18-7.2-5.75-12-6.67-1.9-.31-3.8-.72-5.7-.51-1.2.1-2.1.72-2.9-.21-.6-.72-.4-1.75-.4-2.67.1-3.18.1-5.54,2.1-8.21,1.5-1.95,3.1-3.59,4.8-5.34.2-.21.1-.72-.2-.82-1.9-.72-5,.82-6.8,1.44-3,1.03-6.1,2.36-8.6,4.31-1.6,1.44-3.2,3.59-3.2,6.16Z"/>
      <path class="cls-1" d="m127.56,1025.75c3.5,5.44,5.1,11.81,2.2,17.35-.8,3.59-3.3,7.19-6.1,9.45-1.7,1.44-3.4,2.05-5.7,1.95-1.1-.1-4-.31-5.1-1.23,1.2-.1,1.5-1.54.5-2.87-1.7-2.26-4.6-1.44-5.9.82-1.7,2.98-1,7.29,1.2,9.86.6.62,1.3,1.23,2.1,1.75,2.3,2.57,5.5,4.31,8.8,4.42,4.7.1,8.9-2.67,11.7-6.47,3.1-4.21,4.9-8.62,4.9-13.96,0-6.16-2.3-10.78-5-16.22-.1-.31-.5-.31-.7-.31-.8-1.33-1.8-2.98-2.9-4.52Zm7.5,17.87c.2,3.8-1.2,5.75-2.8,13.86-1,4.93-6.1,8.11-11.2,8.73-2.5.31-5-.51-7.1-1.85,1.8.51,3.6.72,5.1.41,9.6-1.85,13.7-12.01,14.7-20.95.2-2.05.1-3.9-.3-5.75.8,1.75,1.5,3.59,1.6,5.54Z"/>
      <path class="cls-1" d="m177.86,1018.87c-3,9.45,6.5,13.14,10.5,8.11,0,0,2.2-1.23,1.2-3.7-1-2.36,4.2-2.36,5.9,1.95s5.3,14.37-15.8,22.08c-17.6,6.37-34.3,1.75-47.2-19.61-1.5-1.75-2.5-3.7-3.6-5.75-2.4-3.49-4.7-7.19-7.7-10.58-.5-.51-.9-1.03-1.4-1.54-5.1-3.7-11.1-5.85-17.1-4.93-4.2.72-9.1,3.08-8,8.21.9,3.8,3.7,5.96,6.9,7.08.2,0,.4,0,.5.1.6,0,1.2.1,1.7.21.3-.1.7-.1,1.1-.1h.7c1.2.1,2.3.1,3.4-.72,1.2-.92,2.1-2.46,2.1-4.11,0-2.98-3.3-5.85-5.7-3.29-.9.92.7,2.26,1.6,1.23.7-.72,1.6.21,1.9.82.4.82.3,1.64-.1,2.46-.5.92-1.1,1.33-1.9,1.44-.1,0-.2-.1-.4-.1-2-.21-4.2-.41-5.9-1.64-3.5-2.36-2.8-7.29,1.2-8.32,3.3-.92,7.1-.82,10.1.92,13.6,7.91,20.9,27.41,26.5,33.78-.3,0-.7.41-.4.82,1.3,1.95,2.3,3.7,3.4,5.75.9,1.64,2,3.08,3.4,4.21,3,2.36,6.6,4.31,10,5.96,6.7,3.29,13.8,4.93,21.2,4.62,7.8-.21,15.2-3.8,21.2-8.83,3.2-2.67,6.1-5.65,8.5-9.14.8-1.13,2.1-2.77,1.6-4.21.6-1.23,1.2-2.46,1.5-3.7,1.1-4.31.5-8.83-1.2-12.83-.4-1.44-1.1-2.87-2.1-4.11-.4-.62-.9-1.13-1.4-1.64-.4-.51-.8-1.03-1.2-1.44-.1-.1-.2-.1-.3-.1-8.8-8.52-21.9-7.8-24.7.62Zm23.9,31.11c-2.6,2.88-5.6,5.54-8.8,7.6-6.1,4-12.4,6.06-19.7,5.85-6.9-.21-13.3-2.16-19.4-5.34-3-1.54-6.5-3.29-9-5.65-1.6-1.54-2.5-3.39-3.5-5.34-.5-1.03-1.1-1.85-1.7-2.77,1.2,1.33,2.5,2.57,3.9,3.9,12.9,12.12,26.7,13.45,37.8,11.09.9.1,14.8-2.57,22.4-11.91.8-.92,1.6-1.95,2.3-3.08-1,2.16-3.7,4.93-4.3,5.65Z"/>
      <path class="cls-1" d="m131.16,1035.4l.1.1c.2.21.5.41.7.51,1.3,1.33,2.3,3.59,2.8,4.83,1.1,2.36,2.3,4.83,2.3,7.5s-.6,5.54-1.6,8.01c-.9,2.05-3.1,4.42-5.4,4.83h0c-.2.41-.4.82-.7,1.23h0c3.1.72,6.1.51,8.5-1.85,2.2-2.16,3.2-5.13,3-8.21-.2-3.49-.5-7.6-2.2-10.68-.9-1.64-2.1-3.08-3.4-4.42-.7-.72-1.5-1.23-2.3-1.75-.6-.72-1.3-1.33-2-1.64,0,.62.1,1.03.2,1.54Z"/>
      <path class="cls-1" d="m128.96,1044.33c-.2.72-.5,1.33-.8,1.95-.4,1.13-1.2,2.05-2.4,2.77-2.3-1.13-2.8-2.16-1.6-3.08.3-.31.1-.72-.2-.82-.5-.31-1-.31-1.4-.1-.1,0-.2,0-.4.1l-.1.1c-.9.41-1.6,1.33-2.1,2.05-1.4,2.46-.5,4.62,1.2,6.57-.1.1-.1.31.1.51.7.92,3.5,1.13,3.2-.62-.1-.31-.4-.62-.6-.82-.4-.41-.7-.92-1-1.44-.8-1.54-1.5-3.8-.4-5.13.1-.1.2-.21.4-.31h0c-1,1.64-.7,4.21,1.6,4.42,3.6.41,4.8-4,5.8-6.67.1-.41-.2-.72-.5-.72-.2.31-.5.72-.8,1.23Z"/>
    </g>
    <g>
      <path class="cls-2" d="m17.66,437.92c0,122.9.1,309.78.5,330.52l3.1-.1c-.5-29.67-.6-399.31-.4-435.35h-3.1c-.1,10.78-.1,51.95-.1,104.94Z"/>
      <path class="cls-1" d="m37.76,297.56c0-.1,0-.21-.1-.21-.7,0-1.3,0-2-.1-.9-.1-1.4-.62-2-1.23-.2-.21-.4-.31-.5-.62,0-.31.3-.41.5-.62.4-.31.7-.82,1-1.23.8-1.13,1-2.36,1.1-3.8.1-.72.1-1.33,0-2.05-.1-.41-.1-.92-.4-1.23-.1-.1-.2,0-.2.1-.1,1.13-.4,2.05-1.1,2.98-.6.82-1.4,1.64-2.1,2.36-.7.72-1.5,1.23-2.3,1.85-.8.72-1.8,1.13-2.7,1.44-1.8.72-3.7,1.44-5.2,2.67-1.4,1.13-2.3,2.87-2.5,3.49-.3.21-.6.41-.9.72-.9.92-1.7,1.85-2.3,2.98v-1.23c-.1-2.46-1.4-4.31-3.4-5.54-3.7-2.16-7.9.41-7.6,4.62.1.92,1.4.92,1.4,0-.1-2.46,2.9.1,3.5,1.13,1.5,2.36,1.9,4.31,1.9,6.67h-.4c-.8,0-1.3.41-1.8.92-.1.1-.2.1-.2.1v.1s0,.1-.1.1c-1.2-.1-2.4.21-3.3,1.13-.6.72-.9,1.75-.9,2.67-.1.31-.1.51-.1.72.1.92.7,1.95,1.7,2.16.7.21,1.4-.21,1.3-1.03-.1-.51-.4-.72-.7-.41,0-.41.6-1.03.8-1.33.3-.31.5-.51.8-.62h0c.1.72.3,1.33,1,1.54.2.1.5.1.8,0h0s.1,0,.1-.1c.1-.1.2-.21.3-.31,0-.1,0-.21-.1-.21-.4.1-.5-.21-.3-.92.4-.1.7-.1,1,.1.3.1.5.21.8.41h.1c.1.1.3.21.4.31.3.31.5.62.7.92.2.51.4,1.03.4,1.64,0,.72.2,1.85-.1,2.77-.5-.21-1,.31-.7.82.5.72,1.7-.62,1.9-1.03.4-.92.2-2.05-.1-3.08,0,0,.1,0,.1-.1,1.3,5.24,4.1,8.42,4.6,10.47.4,1.64-.8,1.95-1.8,1.85-3.4-2.36-9.6-1.33-11.7,2.05-.9,1.44-1.4,4,.6,4.83,1.8.82,3.9-.21,4.9-1.95.2-.31.1-.62-.1-.82-.4-.31-.5-.41-1-.62-.8-.31-1.1.92-.5,1.33-.4.41-.9.82-1.5.92-2,.31-2-2.16-1-3.29.9-.92,2-1.75,3.3-1.95,1.7-.31,4.1-.31,5.9.51.3.41.7.82,1.3.92.1.1.2.1.3.1,2.1.51,4.9-1.13.6-8.01-6.6-10.47-3.1-16.84,2.9-19.82,5.7-2.77,6.9,0,7.4,1.23s-.5,2.26-.8,1.64c-.3-.72-.9-.51-.9-.51-1.7-.21-2.9,2.46-.5,3.7,2.2,1.13,4.9-1.33,5.1-4.93v-.62c0-.21,0-.41-.1-.62-.1-.41-.2-.82-.4-1.23-.4-1.13-1.2-2.16-2.2-2.77-.3-.21-.7-.31-1-.41-.2-.41-.7-.41-1.1-.51-1.1-.21-2.3-.21-3.5-.1-1.5.1-3,.62-4.3,1.33.3-.31.5-.62.8-.92.8-.72,1.8-1.33,2.8-1.75,1-.41,2.3-.51,3.4-.41.6.1,1.2.21,1.7.72s.6.92.6,1.64c0,.1.1.21.2.1.7-.21,1.3-1.13,1.4-1.85.1-.41,0-.72-.1-1.13-.1-.31-.3-.51-.4-.82.8.21.9,1.75,1.4,2.36.5.51,1.2.62,1.9.51.9-.1,1.8-.51,2.5-.82.7,0,1.6-.31,1.8-.82Zm-27.4,15.61c-1.2-.31-2.5-.21-3.7.51-.4.21-.7.62-.9,1.13.2-.72.5-1.33,1.1-1.85.9-.72,1.9-.82,3-.72,0,.1.1.21.2.31,0,.31.1.51.3.62Zm12.7-13.04c1.1-.21,2.2-.31,3.2-.31.2,0,1.3,0,1.9.21-.4-.1-.7-.1-1-.1-3.3-.31-6.6,1.95-6.8,2.16-2.7,1.75-5.2,4.83-5.4,9.86v1.54c0-.31-.1-.62-.2-.92-.1-.21.3-.41.2-.62.1-1.03-.2-2.16.2-3.18s.7-1.95.8-2.87c.5-1.03,1.2-2.05,2-2.98,1.5-1.44,3.2-2.36,5.1-2.77Z"/>
      <path class="cls-1" d="m36.16,801.91c-.8-.41-1.7-.82-2.5-.82-.7-.1-1.4,0-1.9.51-.5.51-.5,2.05-1.4,2.36.1-.21.3-.51.4-.82.1-.41.2-.72.1-1.13-.2-.72-.7-1.64-1.4-1.85-.1,0-.2,0-.2.1,0,.72-.1,1.13-.6,1.64-.5.41-1.1.62-1.7.72-1.1.1-2.4,0-3.4-.41s-2-.92-2.8-1.75c-.3-.31-.5-.62-.8-.92,1.3.72,2.8,1.23,4.3,1.33,1.2.1,2.3.1,3.5-.1.4-.1.9-.1,1.1-.51.4-.1.7-.21,1-.41,1.1-.62,1.8-1.64,2.2-2.77.2-.41.3-.82.4-1.23,0-.21,0-.41.1-.62v-.62c-.2-3.49-2.9-6.06-5.1-4.93-2.4,1.23-1.2,3.9.5,3.7,0,0,.7.21.9-.51.3-.72,1.3.41.8,1.64-.5,1.23-1.7,3.9-7.4,1.23-6-2.87-9.6-9.24-2.9-19.82,4.3-6.78,1.6-8.52-.6-8.01-.1,0-.2,0-.3.1-.6.21-1,.51-1.3.92-1.7.92-4.1.82-5.9.51-1.3-.21-2.4-1.03-3.3-1.95-1.1-1.13-1-3.59,1-3.29.6.1,1.1.51,1.5.92-.7.41-.3,1.64.5,1.33.5-.21.6-.31,1-.62.2-.21.3-.62.1-.82-1-1.64-3-2.67-4.9-1.95-2,.82-1.5,3.39-.6,4.83,2.2,3.39,8.3,4.42,11.7,2.05,1,0,2.2.21,1.8,1.85-.5,2.05-3.3,5.13-4.6,10.47,0,0,0-.1-.1-.1.3-1.03.5-2.16.1-3.08-.2-.41-1.4-1.75-1.9-1.03-.3.51.2,1.03.7.82.3.82.1,1.95.1,2.77,0,.51-.2,1.13-.4,1.64-.2.31-.4.62-.7.92-.1.1-.2.21-.4.31h-.1c-.3.1-.5.31-.8.41-.3.1-.6.21-1,.1-.2-.72-.1-1.03.3-.92.1,0,.1-.1.1-.21s-.1-.21-.3-.31l-.1-.1h0c-.3-.1-.6-.1-.8,0-.8.21-1,.82-1,1.54h0c-.3-.1-.6-.31-.8-.62-.2-.21-.7-.82-.8-1.33.3.21.6,0,.7-.41.1-.82-.6-1.23-1.3-1.03-.9.21-1.6,1.23-1.7,2.16,0,.21,0,.51.1.72,0,.92.3,1.95.9,2.67.8.92,2.1,1.23,3.3,1.13,0,0,0,.1.1.1v.1s0,.1.2.1c.4.51,1,.92,1.8.92h.4c0,2.46-.4,4.31-1.9,6.67-.6.92-3.6,3.59-3.5,1.13.1-.92-1.3-.92-1.4,0-.3,4.21,3.9,6.78,7.6,4.62,2-1.23,3.2-3.08,3.4-5.54v-1.23c.6,1.13,1.4,2.05,2.3,2.98.3.31.6.51.9.72.2.62,1.1,2.36,2.5,3.49,1.5,1.23,3.4,1.95,5.2,2.67.9.41,1.9.82,2.7,1.44.7.62,1.6,1.13,2.3,1.85.7.72,1.5,1.54,2.1,2.36.7.92,1,1.85,1.1,2.98,0,.1.1.21.2.1.3-.31.4-.82.4-1.23.1-.72.1-1.33,0-2.05-.1-1.33-.3-2.57-1.1-3.8-.3-.41-.6-.92-1-1.23-.3-.21-.6-.31-.5-.62,0-.31.3-.41.5-.62.6-.62,1.1-1.13,2-1.23.7-.1,1.3-.1,2-.1.1,0,.2-.1.1-.21-.4-.21-1.3-.51-1.8-.82Zm-26.2-13.96c-.1.1-.1.21-.2.31-1,.1-2.1,0-3-.72-.6-.41-.9-1.13-1.1-1.85.2.51.6.92.9,1.13,1.2.82,2.4.92,3.7.51-.1.21-.2.41-.3.62Zm8.1,9.75c-.8-.92-1.5-1.85-2-2.98-.1-.92-.4-1.85-.8-2.87-.4-.92,0-2.16-.2-3.18.1-.21-.3-.41-.2-.62.1-.31.1-.62.2-.92v1.54c.2,5.03,2.7,8.11,5.4,9.86.1.21,3.4,2.46,6.8,2.16.3,0,.7-.1,1-.1-.6.21-1.7.21-1.9.21-1.1,0-2.2,0-3.2-.31-2-.41-3.7-1.33-5.1-2.77Z"/>
    </g>
    <g>
      <path class="cls-1" d="m28.96,152.68c4.6-.21,12.4-2.46,11-8.62-1.3-5.85-8.4-5.54-9.7-.21-.3,1.33.2,2.46,1.1,3.08-3.5-.1-8.2-1.13-9.1-1.54-2.7-1.33-4.8-3.29-6.7-5.54-3.8-4.42-6.6-10.78-7.5-16.63-1.1-6.88,1.1-14.17,5.2-19.92,1.6,1.95,3.5,3.8,5.8,5.13,8.4,5.13,17.5-2.67,17.8-11.71,0-.72-.2-2.36-.5-4.11,21.4,1.33,18.5,24.23,3,22.28-2.9-.31-5.3-2.26-7.8.41-4.7,5.13,1.5,10.17,6.1,11.09,7.9,1.64,4.8-.82,3.8,4.42-.3,1.44-.2,3.18.3,4.72.9,2.77,3,4.62,5.7,5.44,3.2.92,7.1,0,9.7-1.85,2.3-1.54,3-3.39,3.6-5.34.3.62.5,1.23.6,1.44.9,1.85,3.6,2.26,4.7.51,3.5-6.06,4.9-13.96,4-21.66,4.6.72,7.3-1.75,8.9-5.24,7.8-.92,15.8-.92,23.6-1.75.4,0,.7-.21.9-.41,0,0,.3-.51.4-.92.9-8.01.9-16.12,1.9-24.13,3.5-1.54,5.9-4.42,5.2-9.14,7.4,1.03,15.1-.31,21.1-3.9,1.8-1.03,1.3-3.9-.4-4.83-.2-.1-.8-.31-1.4-.62,1.9-.62,3.7-1.33,5.2-3.59,1.8-2.67,2.8-6.67,1.9-9.96-.8-2.77-2.5-4.93-5.2-5.85-1.4-.51-3.1-.62-4.5-.31-5.1.92-2.8,4.21-4.3-4-.9-4.72-5.7-11.19-10.7-6.47-2.7,2.46-.9,5.03-.5,8.01,1.7,15.91-20.6,18.69-21.7-3.29,1.8.41,3.4.62,4,.62,8.8-.21,16.5-9.45,11.6-18.17-1.3-2.36-3-4.31-5-5.96,5.6-4.11,12.7-6.26,19.4-5.03,5.6,1.03,11.8,3.9,16.1,7.91,2.2,2.05,4,4.21,5.3,6.98.4.92,1.4,5.75,1.4,9.34-.6-.92-1.7-1.44-3-1.13-5.2,1.33-5.6,8.52.1,9.96,6,1.54,8.3-6.37,8.5-11.19,1.1-20.74-27.8-32.34-43.4-25.36-3.2,1.44-6.2,3.39-8.8,5.75-5.7-2.98-12.6-3.39-18.8-1.44-2.5.82-4.7,1.95-6.7,3.39C63.26,1.23,43.66-5.13,32.96,5.13c-6.9,6.67-9.2,17.87-3.9,24.44,2,2.46,5,4.31,9.2,5.03,5.6,1.03,10.3-1.54,9.9-8.01-.3-5.85-5.2-7.08-10-7.29-2.3-.1-2,3.59.3,3.7,2.9,7.5,1.7,9.75-3.5,6.78-5.1-4.21-6.5-8.93-4.4-14.17,1.2-3.39,3.6-6.98,6.3-9.04,8-5.96,21.2-1.95,28,4.62,1.4,1.33,2.6,2.77,3.6,4.42-4.2,4.21-6.9,9.86-8.5,16.12-2.5,9.04-2.3,17.66.4,26.29-.4.51-.8,1.13-.8,1.13h0l-.6.51c-.6.51-1.6,1.54-2.1,1.95-8.4-2.87-17.1-2.87-25.9-.51-6.1,1.64-11.7,4.42-15.9,8.73-1.6-1.03-3-2.16-4.3-3.7-6.3-7.08-10-20.64-4.2-28.75,2-2.87,5.5-5.24,8.8-6.37,5.1-2.16,9.7-.62,13.8,4.72,2.9,5.44.7,6.67-6.6,3.59-.1-2.36-3.7-2.77-3.6-.41.2,4.93,1.3,9.96,7,10.37,6.3.41,8.9-4.31,8-10.06-2.5-16.12-19.8-15.5-28.7-5.85-10.2,10.88-4.3,31.01,7.4,39.33-1.4,1.95-2.6,4.31-3.4,6.88-2,6.37-1.6,13.35,1.2,19.3-2.3,2.67-4.2,5.65-5.7,8.93-7,15.91,4,45.69,24.2,44.87Zm23.1-86.97c-5.9,3.9-13.5,7.29-16.9,7.7-4.8.72-10.1.51-14.8-1.13,6.3-5.44,16.2-7.8,24-7.6,2.6.1,5.2.41,7.7,1.03Zm18.7-44.56c1.5,4.93,1.6,10.27.9,15.2-.5,3.49-3.8,11.29-7.7,17.25-.6-2.57-.9-5.24-.9-8.01-.1-7.91,2.3-17.97,7.7-24.44Zm19.6,13.25c.1-1.33.2-2.67.4-4.11.6-4.62,2.9-8.93,6.2-12.42,1.5,1.23,2.5,2.77,3.1,4.83,3.9,5.03-.7,9.96-2.3,11.29-1.1.72-4.2.82-7.4.41Zm-7.2-2.77c-.8-1.95-1.4-5.65.8-6.47.6-.21,1.9-.31,2.9-.1-1.1,2.46-1.9,5.13-2.4,7.8-.6-.31-1.1-.82-1.3-1.23Zm15.8,46.2c-4.4,1.13-9.9-.1-14.1-1.03-9-2.05-15.4-8.52-18.9-16.63,3.8-5.34,6.8-13.04,8-17.15,2.2-7.7,2.6-16.84-.3-24.75.1-.1.2-.1.3-.21,5-3.8,12.7-5.13,18.8-2.67-2,2.36-3.7,5.03-5,7.91-2.7-.92-6.2-.41-7,2.57-.7,2.87.5,7.19,2.7,9.24.2.21.4.31.7.51-.9,7.08.1,14.48,3.4,21.36,3.5,7.08,9.9,11.81,17.1,14.17.2.82.3,1.64.2,1.85,0,0,.7,3.39-5.9,4.83Zm-18.9,27.11c.5-2.26.7-4.62.7-6.67,0-6.47-.9-12.83-3.2-18.38,5.1,2.77,11.5,3.49,17.8,3.59,2,0,4.3-.1,6.5-.62-.7,6.88-.7,13.76-1.5,20.74-6.7.62-13.6.72-20.3,1.33Zm-45.9-18.69c-.2-.31-.3-.51-.5-.72-2-2.26-6.1-3.59-8.9-2.87-3,.72-3.5,4.42-2.6,7.19-2.8,1.33-5.4,3.08-7.7,5.03-2.3-6.26-1-14.17,2.8-19.3.1-.1.1-.21.2-.31,7.6,3.08,16.5,2.77,24.1.62,3.9-1.13,11.5-4.11,16.8-8.01,7.8,3.7,14,10.37,15.9,19.61.9,4.42,2,10.06.9,14.48-1.5,6.78-4.7,5.96-4.8,5.96-.2.1-1,0-1.8-.21-2.2-7.5-6.7-14.07-13.6-17.76-6.6-3.49-13.8-4.62-20.8-3.7Zm-10.3,2.77c-.2-1.13-.1-2.36.1-2.98.9-2.36,4.5-1.64,6.3-.82.5.21.9.72,1.2,1.44-2.6.51-5.1,1.33-7.6,2.36Zm-7.1,10.17c3.5-3.29,7.7-5.65,12.2-6.26,1.4-.21,2.7-.31,4-.31.3,3.29.2,6.57-.6,7.5-1.3,1.64-6.2,6.26-11,2.26-1.9-.62-3.4-1.64-4.6-3.18Z"/>
      <path class="cls-1" d="m54.36,262.14c1.7-11.4,3-42.1-15.4-52.88-5.9-3.49-13.2-4.83-15.8-8.42-1.7-3.08-3-10.17-1.7-13.35.8-.72,3.8,2.05,4.7,2.46-2.3-10.88,3-27.52,15.9-24.44-6.7,6.16-7.2,15.81-3.4,22.9,3.6,6.88,33.5,38.81,15.7,73.72Z"/>
      <path class="cls-1" d="m28.86,296.64c.2-.1.4-.21.7-.31,12.8-5.75,21.9-23.92,23.1-27.41,5.7-16.22,6.3-41.58-10.8-50.93-3.2-1.75-8.9-3.39-12.4-1.54-2,1.13.1,2.67,2.1,3.9-.6-.21-1.3-.31-2-.31-1.8-.1-3.6,0-5.4.41-2.9.51-6,1.85-7.8,4.31-1.7,2.26-2.7,5.65-2,8.52.3,1.13.9,2.57,1.9,3.29,1,.82,1.8.62,2.8.41.6,2.87,1.9,6.67,5.5,5.34.2-.1.3-.31.3-.41.6-3.59-.2-7.5,2.1-10.68,2.7-3.7,7.3-3.59,11.3-2.87.9.21,2.2-.51,3.1-.31.3.1.6.21.9.1-1,.72-1.9,1.75-2,2.87,0,.31,0,1.03.3,1.03,3.9.31,6.6,1.64,8.5,5.44.6,1.23,3.5,9.04,3,16.84-.2,2.57-1.9,16.33-8.1,25.77-4.6,7.08-11.2,12.42-15.5,15.61.1.41.2.62.4.92Z"/>
      <path class="cls-1" d="m42.86,227.84c.1,0,.2-.1.3-.1h-.1l-.2.1Z"/>
      <path class="cls-1" d="m73.86,227.02c2,2.46,3.4,5.65,4.4,8.73.6,1.85,2.2,4.93,1.5,6.98-.1.31-.5.41-.8.21-1.8-1.64-3.4-3.29-5.3-4.83-2.6-2.05-4.9-2.05-8-2.05-1,0-1.9-.21-2.6.41-.9.82-.3,1.75-.1,2.98.2,1.95-.1,3.9-.4,5.96-.8,4.93-3.2,8.62-6.2,12.42-1.5,1.95-3.1,3.59-5,5.13-1.2.92-2.5,2.05-4.1,1.95-.4,0-.5-.51-.3-.82,2.6-3.18,3.9-6.37,4.5-10.47.6-3.7.4-7.7.3-11.4-.1-3.59-1-6.98-1.3-10.47-.4-3.7-1.9-7.29-3.4-10.68-2.9-6.47-6-13.04-7.1-20.02-.5-3.18-.7-6.47-.2-9.75.2-1.54.2-4.11,1.2-5.54-.1-.21-.1-.31.1-.51.1-.1.2-.21.3-.41.2-.31.7-.31.9.1.8,2.57,0,5.24.1,7.91.1,3.9,1.4,7.8,2.9,11.4s4.6,7.29,7.7,9.65c1.8,1.44,3.7,2.46,6.1,2.57,2.5.1,3.9-.72,5.6-2.57.3-.31.7-.21.9.1,1.2,2.36.5,6.16-.8,8.42-.7,1.23-1.7,1.95-2.9,2.67-1,.51-2,.62-3,.92,2.7,1.44,6.5-2.36,9.1-2.46,2.2,0,4.4,1.64,5.9,3.49Z"/>
      <path class="cls-1" d="m77.36,130.3c-5.3,3.7-11.4,5.54-16.8,2.67-3.5-.72-7.1-3.18-9.3-6.06-1.4-1.75-2.1-3.49-2-5.75,0-1.13.2-4.11,1.1-5.24.1,1.23,1.5,1.54,2.8.51,2.2-1.75,1.3-4.72-.9-6.06-2.9-1.75-7.2-.82-9.5,1.44-.6.62-1.2,1.33-1.7,2.16-2.4,2.36-4.1,5.75-4.1,9.14,0,4.83,2.8,9.04,6.5,11.81,4.2,3.08,8.5,4.83,13.7,4.72,6-.1,10.5-2.67,15.6-5.44.3-.21.3-.51.2-.72,1.5-.92,3.1-1.95,4.4-3.18Zm-17.1,8.11c-3.7.31-5.6-1.13-13.5-2.57-4.8-.92-8.1-6.06-8.7-11.29-.3-2.57.4-5.13,1.7-7.29-.5,1.85-.6,3.7-.3,5.34,2,9.75,12,13.76,20.8,14.68,2,.21,3.8,0,5.6-.41-1.9.72-3.7,1.44-5.6,1.54Z"/>
      <path class="cls-1" d="m85.26,181.84c-9.2-2.87-12.7,6.98-7.7,10.88,0,0,1.3,2.26,3.6,1.13,2.3-1.13,2.4,4.21-1.8,6.16-4.2,1.95-13.9,5.75-21.8-15.71-6.6-17.87-2.5-35.22,18-48.87,1.6-1.54,3.5-2.67,5.5-3.8,3.4-2.57,6.9-5.03,10.1-8.11.5-.51,1-1.03,1.5-1.44,3.5-5.24,5.5-11.5,4.4-17.66-.7-4.31-3.2-9.34-8.1-8.01-3.7,1.03-5.7,3.9-6.8,7.19,0,.21,0,.41-.1.51,0,.62-.1,1.23-.1,1.75.1.31.1.72.1,1.13v.21h0c0,.21,0,.41.1.51h0c-.1,1.23,0,2.36.8,3.49.9,1.23,2.5,2.05,4,2.05,2.9,0,5.7-3.59,3-5.96-1-.92-2.1.82-1.2,1.64.7.72-.2,1.64-.8,1.95-.8.41-1.6.31-2.4,0-1-.51-1.3-1.13-1.5-1.95,0-.1.1-.21.1-.41.1-2.05.3-4.31,1.4-6.06,2.2-3.59,7.1-2.98,8.2,1.03.9,3.39.9,7.29-.7,10.37-7.4,14.17-26.3,22.08-32.3,27.93,0-.31-.4-.72-.8-.41-1.8,1.33-3.6,2.46-5.6,3.7-1.6.92-3,2.05-4,3.59-2.3,3.08-4,6.88-5.6,10.37-3,6.98-4.5,14.27-4.1,21.87.4,8.01,4.1,15.5,9.1,21.56,2.7,3.18,5.7,6.16,9.1,8.52,1.1.72,2.7,2.05,4.1,1.54,1.2.62,2.4,1.13,3.7,1.44,4.3,1.03,8.6.31,12.5-1.54,1.4-.51,2.7-1.23,4-2.16.6-.51,1.1-.92,1.6-1.44.5-.41.9-.82,1.4-1.23.1-.1.1-.21.1-.31,8.3-9.34,7.3-22.9-1-25.46Zm-29.7,25.26c-2.9-2.67-5.5-5.65-7.6-8.93-4.1-6.16-6.2-12.53-6.1-20.02,0-7.08,1.8-13.66,4.7-20.02,1.5-3.18,3.1-6.67,5.3-9.34,1.4-1.64,3.3-2.67,5.2-3.7,1-.51,1.8-1.13,2.6-1.85-1.2,1.23-2.5,2.57-3.7,4-11.5,13.45-12.5,27.72-10,39.02-.1.92,2.8,15.09,12.1,22.69,1,.82,2,1.54,3,2.26-2.1-.92-4.8-3.49-5.5-4.11Z"/>
      <path class="cls-1" d="m68.16,134.2l-.1.1c-.2.21-.3.51-.5.72-1.3,1.33-3.5,2.36-4.6,2.98-2.2,1.23-4.7,2.46-7.3,2.46s-5.4-.41-7.8-1.44c-2-.82-4.4-3.08-4.8-5.44h0c-.4-.21-.9-.41-1.2-.72h0c-.7,3.18-.3,6.26,2,8.73,2.1,2.26,5.1,3.08,8,2.87,3.4-.31,7.4-.72,10.4-2.57,1.6-.92,2.9-2.26,4.2-3.59.7-.72,1.2-1.54,1.6-2.36.7-.62,1.3-1.33,1.6-2.16-.6.31-1.1.41-1.5.41Z"/>
      <path class="cls-1" d="m59.36,132.25c-.7-.21-1.3-.41-1.9-.72-1.1-.41-2.1-1.23-2.7-2.36,1.1-2.36,2-2.98,3-1.75.3.31.7.1.8-.21.3-.51.3-1.03.1-1.44,0-.1,0-.21-.1-.41l-.1-.1c-.5-.92-1.4-1.64-2.1-2.05-2.5-1.44-4.5-.41-6.4,1.33-.1-.1-.3-.1-.5.1-.9.82-1,3.59.7,3.29.3-.1.6-.51.8-.62.4-.41.9-.72,1.4-1.03,1.5-.82,3.7-1.64,5-.51.1.1.2.21.3.41h0c-1.6-1.03-4.1-.72-4.3,1.75-.3,3.7,4,4.93,6.7,5.75.4.1.7-.21.7-.51-.4-.41-.9-.62-1.4-.92Z"/>
      <path class="cls-1" d="m183.26,36.96c-6.9-3.7-16.4-2.98-22.2,4-3.2-13.14,12.8-18.89,23.5-16.84-.4-.92-3.1-3.9-2.5-4.72,3.1-1.44,10-.31,13,1.44,3.5,2.57,5,10.06,8.5,16.02,10.9,18.69,40.7,16.63,51.8,14.58-33.6,19.1-65.4-10.99-72.1-14.48Z"/>
      <path class="cls-1" d="m288.36,25.47c-.1.21-.2.41-.3.72-5.3,13.25-22.8,23-26.1,24.33-15.7,6.26-40.4,7.39-49.8-9.96-1.8-3.29-3.5-9.04-1.7-12.73,1-2.05,2.6,0,3.8,2.05-.2-.62-.3-1.33-.3-2.05-.1-1.85,0-3.7.3-5.54.5-2.98,1.7-6.16,4-8.11,2.2-1.75,5.5-2.87,8.2-2.26,1.1.31,2.5.82,3.3,1.85s.7,1.85.5,2.87c2.8.62,6.5,1.75,5.3,5.54-.1.21-.2.31-.4.31-3.5.72-7.3,0-10.4,2.46-3.5,2.77-3.4,7.6-2.6,11.71.2.92-.5,2.26-.2,3.18.1.31.2.62.1.92.6-1.03,1.7-1.95,2.8-2.16.3,0,1,0,1.1.31.4,4,1.8,6.67,5.5,8.62,1.2.62,8.9,3.39,16.4,2.67,2.5-.21,15.9-2.36,25-8.83,6.8-4.93,11.9-11.81,14.8-16.22.2.1.5.21.7.31Z"/>
      <path class="cls-1" d="m218.16,66.02c.1-2.67,3.6-6.67,2.2-9.34-.3,1.03-.3,2.16-.8,3.08-.6,1.23-1.3,2.26-2.5,3.08-2.1,1.33-5.8,2.26-8.1,1.03-.4-.21-.4-.62-.2-.92,1.7-1.75,2.5-3.18,2.3-5.75-.1-2.36-1.2-4.31-2.6-6.16-2.3-3.08-6-6.16-9.6-7.6-3.5-1.44-7.4-2.67-11.2-2.77-2.6,0-5.2.82-7.7,0-.4-.1-.4-.62-.2-.92.1-.1.2-.21.4-.31.2-.21.4-.21.5-.1,1.3-1.03,3.8-1.13,5.3-1.33,3.1-.62,6.3-.41,9.5,0,6.9.92,13.4,4,19.7,6.78,3.3,1.44,6.8,2.98,10.5,3.29,3.4.31,6.8,1.03,10.2,1.13,3.6,0,7.5.1,11.1-.51,4-.72,7-2.16,10-4.93.3-.21.8-.1.8.31.1,1.54-1,2.98-1.8,4.21-1.4,2.05-3,3.7-4.9,5.24-3.7,3.18-7.2,5.75-12,6.67-1.9.31-3.8.72-5.7.51-1.2-.1-2.1-.72-2.9.21-.6.72-.4,1.75-.4,2.67.1,3.18.1,5.54,2.1,8.21,1.5,1.95,3.1,3.59,4.8,5.34.2.21.1.72-.2.82-1.9.72-5-.82-6.8-1.44-3-1.03-6.1-2.36-8.6-4.31-1.6-1.44-3.2-3.59-3.2-6.16Z"/>
      <path class="cls-1" d="m130.56,73.42c.2.1.6,0,.7-.31,2.6-5.34,4.9-10.06,5-16.22,0-5.34-1.8-9.75-4.9-13.96-2.8-3.7-7-6.57-11.7-6.47-3.3.1-6.6,1.95-8.8,4.42-.8.51-1.5,1.13-2.1,1.75-2.1,2.46-2.9,6.88-1.2,9.86,1.3,2.26,4.2,3.08,5.9.82,1-1.33.7-2.77-.5-2.87,1.2-1.03,4.1-1.23,5.1-1.23,2.2-.1,3.9.51,5.7,1.95,2.8,2.26,5.3,5.85,6.1,9.45,2.9,5.54,1.3,11.81-2.2,17.35,1-1.33,2-2.98,2.9-4.52Zm3-7.5c.4-1.85.5-3.7.3-5.75-1-8.93-5.1-19.1-14.7-20.95-1.6-.31-3.4-.1-5.1.41,2.1-1.44,4.6-2.16,7.1-1.85,5.1.62,10.2,3.8,11.2,8.73,1.6,8.11,3,10.06,2.8,13.86-.2,1.85-.9,3.7-1.6,5.54Z"/>
      <path class="cls-1" d="m202.76,85.63c.1,0,.2,0,.3-.1.4-.41.8-.92,1.2-1.44.5-.51.9-1.13,1.4-1.64,1-1.33,1.6-2.67,2.1-4.11,1.7-4,2.3-8.52,1.2-12.83-.3-1.33-.8-2.57-1.5-3.7.5-1.44-.8-3.08-1.6-4.21-2.3-3.49-5.3-6.47-8.5-9.14-6-5.03-13.4-8.62-21.2-8.83-7.4-.21-14.5,1.44-21.2,4.62-3.4,1.64-7,3.59-10,5.96-1.4,1.13-2.5,2.57-3.4,4.21-1.1,2.05-2.1,3.9-3.4,5.75-.3.41.1.82.4.82-5.6,6.26-12.9,25.77-26.5,33.78-2.9,1.75-6.7,1.75-10.1.92-3.9-1.03-4.6-5.96-1.2-8.32,1.7-1.13,3.9-1.44,5.9-1.64.1,0,.3,0,.4-.1.8.1,1.4.51,1.9,1.44.4.72.5,1.64.1,2.46-.3.62-1.2,1.64-1.9.82-.9-.92-2.5.31-1.6,1.23,2.4,2.67,5.8-.21,5.7-3.29,0-1.54-.8-3.18-2.1-4.11-1.1-.82-2.2-.82-3.4-.72h-.7c-.4,0-.7,0-1.1-.1-.6.1-1.2.21-1.7.21-.2,0-.4,0-.5.1-3.2,1.13-6,3.29-6.9,7.08-1.2,5.13,3.8,7.5,8,8.21,6,.92,12-1.13,17.1-4.93.5-.51,1-1.03,1.4-1.54,2.9-3.39,5.2-7.08,7.7-10.58,1.1-2.05,2.1-4,3.6-5.75,12.8-21.36,29.6-25.98,47.2-19.61,21,7.6,17.6,17.66,15.8,22.08-1.8,4.42-7,4.42-5.9,1.95,1-2.36-1.2-3.7-1.2-3.7-3.9-5.03-13.5-1.23-10.5,8.11,2.6,8.42,15.7,9.14,24.7.62Zm3.3-26.18c-.7-1.13-1.5-2.16-2.3-3.08-7.6-9.34-21.5-12.01-22.4-11.91-11-2.36-24.9-1.03-37.8,11.09-1.4,1.33-2.6,2.57-3.9,3.9.6-.92,1.2-1.75,1.7-2.77.9-1.95,1.9-3.9,3.5-5.34,2.5-2.36,6-4.11,9-5.65,6.1-3.18,12.5-5.13,19.4-5.34,7.3-.21,13.5,1.85,19.7,5.85,3.2,2.16,6.2,4.72,8.8,7.7.6.72,3.3,3.49,4.3,5.54Z"/>
      <path class="cls-1" d="m131.16,68.49l.1-.1c.2-.21.5-.41.7-.51,1.3-1.33,2.3-3.59,2.8-4.83,1.1-2.36,2.3-4.83,2.3-7.5s-.6-5.54-1.6-8.01c-.9-2.05-3.1-4.42-5.4-4.83h0c-.2-.41-.4-.82-.7-1.23h0c3.1-.72,6.1-.51,8.5,1.85,2.2,2.16,3.2,5.13,3,8.21-.2,3.49-.5,7.6-2.2,10.68-.9,1.64-2.1,3.08-3.4,4.42-.7.72-1.5,1.23-2.3,1.75-.6.72-1.3,1.33-2,1.64,0-.62.1-1.03.2-1.54Z"/>
      <path class="cls-1" d="m128.96,59.55c-.2-.72-.5-1.33-.8-1.95-.4-1.13-1.2-2.05-2.4-2.77-2.3,1.13-2.8,2.16-1.6,3.08.3.31.1.72-.2.82-.5.31-1,.31-1.4.1-.1,0-.2,0-.4-.1l-.1-.1c-.9-.41-1.6-1.33-2.1-2.05-1.4-2.46-.5-4.62,1.2-6.57-.1-.1-.1-.31.1-.51.7-.92,3.5-1.13,3.2.62-.1.31-.4.62-.6.82-.4.41-.7.92-1,1.44-.8,1.54-1.5,3.8-.4,5.13.1.1.2.21.4.31h0c-1-1.64-.7-4.21,1.6-4.42,3.6-.41,4.8,4,5.8,6.67.1.41-.2.72-.5.72-.2-.31-.5-.72-.8-1.23Z"/>
    </g>
    <g>
      <path class="cls-1" d="m946.16,951.2c-4.6.21-12.4,2.46-11,8.62,1.3,5.85,8.4,5.54,9.7.21.3-1.33-.2-2.46-1.1-3.08,3.5.1,8.2,1.13,9.1,1.54,2.7,1.33,4.8,3.29,6.7,5.54,3.8,4.42,6.6,10.78,7.5,16.63,1.1,6.88-1.1,14.17-5.2,19.92-1.6-1.95-3.5-3.8-5.8-5.13-8.4-5.13-17.5,2.67-17.8,11.71,0,.72.2,2.36.5,4.11-21.4-1.33-18.5-24.23-3-22.28,2.9.31,5.3,2.26,7.8-.41,4.7-5.13-1.5-10.17-6.1-11.09-7.9-1.64-4.8.82-3.8-4.42.3-1.44.2-3.18-.3-4.72-.9-2.77-3-4.62-5.7-5.44-3.2-.92-7.1,0-9.7,1.85-2.3,1.54-3,3.39-3.6,5.34-.3-.62-.5-1.23-.6-1.44-.9-1.85-3.6-2.26-4.7-.51-3.5,6.06-4.9,13.96-4,21.66-4.6-.72-7.3,1.75-8.9,5.24-7.8.92-15.8.92-23.6,1.75-.4,0-.7.21-.9.41,0,0-.3.51-.4.92-.9,8.01-.9,16.12-1.9,24.13-3.5,1.54-5.9,4.42-5.2,9.14-7.4-1.03-15.1.31-21.1,3.9-1.8,1.03-1.3,3.9.4,4.83.2.1.8.31,1.4.62-1.9.62-3.7,1.33-5.2,3.59-1.8,2.67-2.8,6.67-1.9,9.96.8,2.77,2.5,4.93,5.2,5.85,1.4.51,3.1.62,4.5.31,5.1-.92,2.8-4.21,4.3,4,.9,4.72,5.7,11.19,10.7,6.47,2.7-2.46.9-5.03.5-8.01-1.7-15.91,20.6-18.69,21.7,3.29-1.8-.41-3.4-.62-4-.62-8.8.21-16.5,9.45-11.6,18.17,1.3,2.36,3,4.31,5,5.96-5.6,4.11-12.7,6.26-19.4,5.03-5.6-1.03-11.8-3.9-16.1-7.91-2.2-2.05-4-4.21-5.3-6.98-.4-.92-1.4-5.75-1.4-9.34.6.92,1.7,1.44,3,1.13,5.2-1.33,5.6-8.52-.1-9.96-6-1.54-8.3,6.37-8.5,11.19-1.1,20.74,27.8,32.34,43.4,25.46,3.2-1.44,6.2-3.39,8.8-5.75,5.7,2.98,12.6,3.39,18.8,1.44,2.5-.82,4.7-1.95,6.7-3.39,7.9,12.12,27.5,18.38,38.1,8.21,6.9-6.57,9.2-17.87,3.9-24.44-2-2.46-5-4.31-9.2-5.03-5.6-1.03-10.3,1.54-9.9,8.01.3,5.85,5.2,7.08,10,7.29,2.3.1,2-3.59-.3-3.7-2.9-7.5-1.7-9.75,3.5-6.78,5.1,4.21,6.5,8.93,4.4,14.17-1.2,3.39-3.6,6.98-6.3,9.04-8,5.96-21.2,1.95-28-4.62-1.4-1.33-2.6-2.77-3.6-4.42,4.2-4.21,6.9-9.86,8.5-16.12,2.5-9.04,2.3-17.66-.4-26.29.4-.51.8-1.13.8-1.13h0l.6-.62c.6-.51,1.6-1.54,2.1-1.95,8.4,2.87,17.1,2.87,25.9.51,6.1-1.64,11.7-4.42,15.9-8.73,1.6,1.03,3,2.16,4.3,3.7,6.3,7.08,10,20.64,4.2,28.75-2,2.88-5.5,5.24-8.8,6.37-5.1,2.16-9.7.62-13.8-4.72-2.9-5.44-.7-6.67,6.6-3.59.1,2.36,3.7,2.77,3.6.41-.2-4.93-1.3-9.96-7-10.37-6.3-.41-8.9,4.31-8,10.06,2.5,16.12,19.8,15.5,28.7,5.85,10.1-10.78,4.1-31.01-7.5-39.22,1.4-1.95,2.6-4.31,3.4-6.88,2-6.37,1.6-13.35-1.2-19.3,2.3-2.67,4.2-5.65,5.7-8.93,7.2-16.02-3.8-45.79-24-44.97Zm-23,86.97c5.9-3.9,13.5-7.29,16.9-7.7,4.8-.72,10.1-.51,14.8,1.13-6.3,5.44-16.2,7.8-24,7.6-2.6-.1-5.2-.41-7.7-1.03Zm-18.7,44.56c-1.5-4.93-1.6-10.27-.9-15.2.5-3.49,3.8-11.29,7.7-17.25.6,2.57.9,5.24.9,8.01,0,7.91-2.4,17.97-7.7,24.44Zm-19.6-13.35c-.1,1.33-.2,2.67-.4,4.11-.6,4.62-2.9,8.93-6.2,12.42-1.5-1.23-2.5-2.77-3.1-4.83-3.9-5.03.7-9.96,2.3-11.29,1-.62,4.2-.72,7.4-.41Zm7.2,2.88c.8,1.95,1.4,5.65-.8,6.47-.6.21-1.9.31-2.9.1,1.1-2.46,1.9-5.13,2.4-7.8.6.31,1.1.82,1.3,1.23Zm-15.9-46.2c4.4-1.13,9.9.1,14.1,1.03,9,2.05,15.4,8.52,18.9,16.63-3.8,5.34-6.8,13.04-8,17.15-2.2,7.7-2.6,16.84.3,24.75-.1.1-.2.1-.3.21-5,3.8-12.7,5.13-18.8,2.67,2-2.36,3.7-5.03,5-7.91,2.7.92,6.2.41,7-2.57.7-2.88-.5-7.19-2.7-9.24-.2-.21-.4-.31-.7-.51.9-7.08-.1-14.48-3.4-21.36-3.5-7.08-9.9-11.81-17.1-14.17-.2-.82-.3-1.64-.2-1.85.1,0-.7-3.39,5.9-4.83Zm19-27.11c-.5,2.26-.7,4.62-.7,6.67,0,6.47.9,12.83,3.2,18.38-5.1-2.77-11.5-3.49-17.8-3.59-2,0-4.3.1-6.5.62.7-6.88.7-13.76,1.5-20.74,6.7-.62,13.5-.72,20.3-1.33Zm45.8,18.69c.2.31.3.51.5.72,2,2.26,6.1,3.59,8.9,2.87,3-.72,3.5-4.42,2.6-7.19,2.8-1.33,5.4-3.08,7.7-5.03,2.3,6.26,1,14.17-2.8,19.3-.1.1-.1.21-.2.31-7.6-3.08-16.5-2.77-24.1-.62-3.9,1.13-11.5,4.11-16.8,8.01-7.8-3.7-14-10.37-15.9-19.61-.9-4.42-2-10.06-.9-14.48,1.5-6.78,4.7-5.96,4.8-5.96.2-.1,1,0,1.8.21,2.2,7.5,6.7,14.07,13.6,17.76,6.7,3.49,13.9,4.62,20.8,3.7Zm10.3-2.77c.2,1.13.1,2.36-.1,2.98-.9,2.36-4.5,1.64-6.3.82-.5-.21-.9-.72-1.2-1.44,2.6-.51,5.2-1.33,7.6-2.36Zm7.1-10.17c-3.5,3.29-7.7,5.65-12.2,6.26-1.4.21-2.7.31-4,.31-.3-3.29-.2-6.57.6-7.5,1.3-1.64,6.2-6.26,11-2.26,1.9.62,3.4,1.64,4.6,3.18Z"/>
      <path class="cls-1" d="m920.86,841.75c-1.7,11.4-3,42.1,15.4,52.88,5.9,3.49,13.2,4.83,15.8,8.42,1.7,3.08,3,10.17,1.7,13.35-.8.72-3.8-2.05-4.7-2.46,2.3,10.88-3,27.52-15.9,24.44,6.7-6.16,7.2-15.81,3.4-22.9-3.6-6.88-33.6-38.81-15.7-73.72Z"/>
      <path class="cls-1" d="m946.36,807.25c-.2.1-.4.21-.7.31-12.8,5.75-21.9,23.92-23.1,27.41-5.7,16.22-6.3,41.58,10.8,50.93,3.2,1.75,8.9,3.39,12.4,1.54,2-1.13-.1-2.67-2.1-3.9.6.21,1.3.31,2,.31,1.8.1,3.6,0,5.4-.41,2.9-.51,6-1.85,7.8-4.31,1.7-2.26,2.7-5.65,2-8.52-.3-1.13-.9-2.57-1.9-3.29-1-.82-1.8-.62-2.8-.41-.6-2.87-1.9-6.67-5.5-5.34-.2.1-.3.31-.3.41-.6,3.59.2,7.5-2.1,10.68-2.7,3.7-7.3,3.59-11.3,2.87-.9-.21-2.2.51-3.1.31-.3-.1-.6-.21-.9-.1,1-.72,1.9-1.75,2-2.87,0-.31,0-1.03-.3-1.03-3.9-.31-6.6-1.64-8.5-5.44-.6-1.23-3.5-9.04-3-16.84.2-2.57,1.9-16.33,8.1-25.77,4.6-7.08,11.2-12.42,15.5-15.61-.1-.41-.3-.62-.4-.92Z"/>
      <path class="cls-1" d="m901.36,876.87c-2-2.46-3.4-5.65-4.4-8.73-.6-1.85-2.2-4.93-1.5-6.98.1-.31.5-.41.8-.21,1.8,1.64,3.4,3.29,5.3,4.83,2.6,2.05,4.9,2.05,8,2.05,1,0,1.9.21,2.6-.41.9-.82.3-1.75.1-2.98-.2-1.95.1-3.9.4-5.96.8-4.93,3.2-8.62,6.2-12.42,1.5-1.95,3.1-3.59,5-5.13,1.2-.92,2.5-2.05,4.1-1.95.4,0,.5.51.3.82-2.6,3.18-3.9,6.37-4.5,10.47-.6,3.7-.4,7.7-.3,11.4.1,3.59,1,6.98,1.3,10.47.4,3.7,1.9,7.29,3.4,10.68,2.9,6.47,6,13.04,7.1,20.02.5,3.18.7,6.47.2,9.75-.2,1.54-.2,4.11-1.2,5.54.1.21.1.31-.1.51-.1.1-.2.21-.3.41-.2.31-.7.31-.9-.1-.8-2.57,0-5.24-.1-7.91-.1-3.9-1.4-7.8-2.9-11.4s-4.6-7.29-7.7-9.65c-1.8-1.44-3.7-2.46-6.1-2.57-2.5-.1-3.9.72-5.6,2.57-.3.31-.7.21-.9-.1-1.2-2.36-.5-6.16.8-8.42.7-1.23,1.7-1.95,2.9-2.67,1-.51,2-.62,3-.92-2.7-1.44-6.5,2.36-9.1,2.46-2.3,0-4.4-1.64-5.9-3.49Z"/>
      <path class="cls-1" d="m897.76,973.59c5.3-3.7,11.4-5.54,16.8-2.67,3.5.72,7.1,3.18,9.3,6.06,1.4,1.75,2.1,3.49,2,5.75,0,1.13-.2,4.11-1.1,5.24-.1-1.23-1.5-1.54-2.8-.51-2.2,1.75-1.3,4.72.9,6.06,2.9,1.75,7.2.82,9.5-1.44.6-.62,1.2-1.33,1.7-2.16,2.4-2.36,4.1-5.75,4.1-9.14,0-4.83-2.8-9.04-6.5-11.81-4.2-3.08-8.5-4.83-13.7-4.72-6,.1-10.5,2.67-15.6,5.44-.3.21-.3.51-.2.72-1.4.92-3,1.95-4.4,3.18Zm17.2-8.11c3.7-.31,5.6,1.13,13.5,2.57,4.8.92,8.1,6.06,8.7,11.29.3,2.57-.4,5.13-1.7,7.29.5-1.85.6-3.7.3-5.34-2-9.75-12-13.76-20.8-14.68-2-.21-3.8,0-5.6.41,1.9-.72,3.6-1.44,5.6-1.54Z"/>
      <path class="cls-1" d="m889.96,922.04c9.2,2.87,12.7-6.98,7.7-10.88,0,0-1.3-2.26-3.6-1.13-2.3,1.13-2.4-4.21,1.8-6.16s13.9-5.75,21.8,15.71c6.6,17.87,2.5,35.22-18,48.87-1.6,1.54-3.5,2.67-5.5,3.8-3.4,2.57-6.9,5.03-10.1,8.11-.5.51-1,1.03-1.5,1.44-3.5,5.24-5.5,11.5-4.4,17.66.7,4.31,3.2,9.34,8.1,8.01,3.7-1.03,5.7-3.9,6.8-7.19,0-.21,0-.41.1-.51,0-.62.1-1.23.1-1.75-.1-.31-.1-.72-.1-1.13v-.21h0c0-.21,0-.41-.1-.51h0c.1-1.23,0-2.36-.8-3.49-.9-1.23-2.5-2.05-4-2.05-2.9,0-5.7,3.59-3,5.96,1,.92,2.1-.82,1.2-1.64-.7-.72.2-1.64.8-1.95.8-.41,1.6-.31,2.4,0,1,.51,1.3,1.13,1.5,1.95,0,.1-.1.21-.1.41-.1,2.05-.3,4.31-1.4,6.06-2.2,3.59-7.1,2.98-8.2-1.03-.9-3.39-.9-7.29.7-10.37,7.4-14.17,26.3-22.08,32.3-27.93,0,.31.4.72.8.41,1.8-1.33,3.6-2.46,5.6-3.7,1.6-.92,3-2.05,4-3.59,2.3-3.08,4-6.88,5.6-10.37,3-6.98,4.5-14.27,4.1-21.87-.4-8.01-4.1-15.5-9.1-21.56-2.7-3.18-5.7-6.16-9.1-8.52-1.1-.72-2.7-2.05-4.1-1.54-1.2-.62-2.4-1.13-3.7-1.44-4.3-1.03-8.6-.31-12.5,1.54-1.4.51-2.7,1.23-4,2.16-.6.51-1.1.92-1.6,1.44-.5.41-.9.82-1.4,1.23-.1.1-.1.21-.1.31-8.4,9.34-7.3,22.79,1,25.46Zm29.6-25.26c2.9,2.67,5.5,5.65,7.6,8.93,4.1,6.16,6.2,12.53,6.1,20.02,0,7.08-1.8,13.66-4.7,20.02-1.5,3.18-3.1,6.67-5.3,9.34-1.4,1.64-3.3,2.67-5.2,3.7-1,.51-1.8,1.13-2.6,1.85,1.2-1.23,2.5-2.57,3.7-4,11.5-13.45,12.5-27.72,10-39.02.1-.92-2.8-15.09-12.1-22.69-1-.82-2-1.54-3-2.26,2.1.92,4.9,3.49,5.5,4.11Z"/>
      <path class="cls-1" d="m907.06,969.69h0c.3-.31.4-.62.6-.82,1.3-1.33,3.5-2.36,4.6-2.98,2.2-1.23,4.7-2.46,7.3-2.46s5.4.41,7.8,1.44c2,.82,4.4,3.08,4.8,5.44h0c.4.21.9.41,1.2.72h0c.7-3.18.3-6.26-2-8.73-2.1-2.26-5.1-3.08-8-2.87-3.4.31-7.4.72-10.4,2.57-1.6.92-2.9,2.26-4.2,3.59-.7.72-1.2,1.54-1.6,2.36-.7.62-1.3,1.33-1.6,2.16.5-.31,1-.41,1.5-.41Z"/>
      <path class="cls-1" d="m915.76,971.64c.7.21,1.3.41,1.9.72,1.1.41,2.1,1.23,2.7,2.36-1.1,2.36-2,2.98-3,1.75-.3-.31-.7-.1-.8.21-.3.51-.3,1.03-.1,1.44,0,.1,0,.21.1.41l.1.1c.5.92,1.4,1.64,2.1,2.05,2.5,1.44,4.5.41,6.4-1.33.1.1.3.1.5-.1.9-.82,1-3.59-.7-3.29-.3.1-.6.51-.8.62-.4.41-.9.72-1.4,1.03-1.5.82-3.7,1.64-5,.51-.1-.1-.2-.21-.3-.41h0c1.6,1.03,4.1.72,4.3-1.75.3-3.7-4-4.93-6.7-5.75-.4-.1-.7.21-.7.51.5.41.9.62,1.4.92Z"/>
      <path class="cls-1" d="m791.86,1066.92c6.9,3.7,16.4,2.98,22.2-4,3.2,13.14-12.8,18.89-23.5,16.84.4.92,3.1,3.9,2.5,4.72-3.1,1.44-10,.31-13-1.44-3.5-2.57-5-10.06-8.5-16.02-10.9-18.69-40.7-16.63-51.8-14.58,33.7-19.1,65.4,10.99,72.1,14.48Z"/>
      <path class="cls-1" d="m685.76,1079.35c.1-.21,1.2-.41,1.3-.62,5.3-13.25,22.8-23,26.1-24.33,15.7-6.26,40.4-7.39,49.8,9.96,1.8,3.29,3.5,9.04,1.7,12.73-1,2.05-2.6,0-3.8-2.05.2.62.3,1.33.3,2.05.1,1.85,0,3.7-.3,5.54-.5,2.98-1.7,6.16-4,8.11-2.2,1.75-5.5,2.88-8.2,2.26-1.1-.31-2.5-.82-3.3-1.85s-.7-1.85-.5-2.88c-2.8-.62-6.5-1.75-5.3-5.54.1-.21.2-.31.4-.31,3.5-.72,7.3,0,10.4-2.46,3.5-2.77,3.4-7.6,2.6-11.71-.2-.92.5-2.26.2-3.18-.1-.31-.2-.62-.1-.92-.6,1.03-1.7,1.95-2.8,2.16-.3,0-1,0-1.1-.31-.4-4-1.8-6.67-5.5-8.62-1.2-.62-8.9-3.39-16.4-2.67-2.5.21-15.9,2.36-25,8.83-6.8,4.93-12.7,12.01-15.7,16.53-.1-.1-.5-.62-.8-.72Z"/>
      <path class="cls-1" d="m753.56,1063.22h0s-.1.1-.1.21l.1-.21Z"/>
      <path class="cls-1" d="m756.96,1037.86c-.1,2.67-3.6,6.67-2.2,9.34.3-1.03.3-2.16.8-3.08.6-1.23,1.3-2.26,2.5-3.08,2.1-1.33,5.8-2.26,8.1-1.03.4.21.4.62.2.92-1.7,1.75-2.5,3.18-2.3,5.75.1,2.36,1.2,4.31,2.6,6.16,2.3,3.08,6,6.16,9.6,7.6,3.5,1.44,7.4,2.67,11.2,2.77,2.6,0,5.2-.82,7.7,0,.4.1.4.62.2.92-.1.1-.2.21-.4.31-.2.21-.4.21-.5.1-1.3,1.03-3.8,1.13-5.3,1.33-3.1.62-6.3.41-9.5,0-6.9-.92-13.4-4-19.7-6.78-3.3-1.44-6.8-2.98-10.5-3.29-3.4-.31-6.8-1.03-10.2-1.13-3.6,0-7.5-.1-11.1.51-4,.72-7,2.16-10,4.93-.3.21-.8.1-.8-.31-.1-1.54,1-2.98,1.8-4.21,1.4-2.05,3-3.7,4.9-5.24,3.7-3.18,7.2-5.75,12-6.67,1.9-.31,3.8-.72,5.7-.51,1.2.1,2.1.72,2.9-.21.6-.72.4-1.75.4-2.67-.1-3.18-.1-5.54-2.1-8.21-1.5-1.95-3.1-3.59-4.8-5.34-.2-.21-.1-.72.2-.82,1.9-.72,5,.82,6.8,1.44,3,1.03,6.1,2.36,8.6,4.31,1.7,1.44,3.3,3.59,3.2,6.16Z"/>
      <path class="cls-1" d="m844.66,1030.47c-.2-.1-.6,0-.7.31-2.6,5.34-4.9,10.06-5,16.22,0,5.34,1.8,9.75,4.9,13.96,2.8,3.7,7,6.57,11.7,6.47,3.3-.1,6.6-1.95,8.8-4.42.8-.51,1.5-1.13,2.1-1.75,2.1-2.46,2.9-6.88,1.2-9.86-1.3-2.26-4.2-3.08-5.9-.82-1,1.33-.7,2.77.5,2.87-1.2,1.03-4.1,1.23-5.1,1.23-2.2.1-3.9-.51-5.7-1.95-2.8-2.26-5.3-5.85-6.1-9.45-2.9-5.54-1.3-11.81,2.2-17.35-1.1,1.33-2.1,2.98-2.9,4.52Zm-3.1,7.5c-.4,1.85-.5,3.7-.3,5.75,1,8.93,5.1,19.1,14.7,20.95,1.6.31,3.4.1,5.1-.41-2.1,1.44-4.6,2.16-7.1,1.85-5.1-.62-10.2-3.8-11.2-8.73-1.6-8.11-3-10.06-2.8-13.86.3-1.85.9-3.7,1.6-5.54Z"/>
      <path class="cls-1" d="m772.46,1018.25c-.1,0-.2,0-.3.1-.4.41-.8.92-1.2,1.44-.5.51-.9,1.13-1.4,1.64-1,1.33-1.6,2.67-2.1,4.11-1.7,4-2.3,8.52-1.2,12.83.3,1.33.8,2.57,1.5,3.7-.5,1.44.8,3.08,1.6,4.21,2.3,3.49,5.3,6.47,8.5,9.14,6,5.03,13.4,8.62,21.2,8.83,7.4.21,14.5-1.44,21.2-4.62,3.4-1.64,7-3.59,10-5.96,1.4-1.13,2.5-2.57,3.4-4.21,1.1-2.05,2.1-3.9,3.4-5.75.3-.41-.1-.82-.4-.82,5.6-6.26,12.9-25.77,26.5-33.78,2.9-1.75,6.7-1.75,10.1-.92,3.9,1.03,4.6,5.96,1.2,8.32-1.7,1.13-3.9,1.44-5.9,1.64-.1,0-.3,0-.4.1-.8-.1-1.4-.51-1.9-1.44-.4-.72-.5-1.64-.1-2.46.3-.62,1.2-1.64,1.9-.82.9.92,2.5-.31,1.6-1.23-2.4-2.67-5.8.21-5.7,3.29,0,1.54.8,3.18,2.1,4.11,1.1.82,2.2.82,3.4.72h.7c.4,0,.7,0,1.1.1.6-.1,1.2-.21,1.7-.21.2,0,.4,0,.5-.1,3.2-1.13,6-3.29,6.9-7.08,1.2-5.13-3.8-7.5-8-8.21-6-.92-12,1.13-17.1,4.93-.5.51-1,1.03-1.4,1.54-2.9,3.39-5.2,7.08-7.7,10.58-1.1,2.05-2.1,4-3.6,5.75-12.8,21.36-29.6,25.98-47.2,19.61-21-7.6-17.6-17.66-15.8-22.08s7-4.42,5.9-1.95c-1,2.36,1.2,3.7,1.2,3.7,3.9,5.03,13.5,1.23,10.5-8.11-2.6-8.42-15.7-9.14-24.7-.62Zm-3.4,26.18c.7,1.13,1.5,2.16,2.3,3.08,7.6,9.34,21.5,12.01,22.4,11.91,11,2.36,24.9,1.03,37.8-11.09,1.4-1.33,2.6-2.57,3.9-3.9-.6.92-1.2,1.75-1.7,2.77-.9,1.95-1.9,3.9-3.5,5.34-2.5,2.36-6,4.11-9,5.65-6.1,3.18-12.5,5.13-19.4,5.34-7.3.21-13.5-1.85-19.7-5.85-3.2-2.16-6.2-4.72-8.8-7.6-.6-.82-3.2-3.59-4.3-5.65Z"/>
      <path class="cls-1" d="m844.06,1035.4h0c-.3.31-.6.51-.8.62-1.3,1.33-2.3,3.59-2.8,4.83-1.1,2.36-2.3,4.83-2.3,7.5s.6,5.54,1.6,8.01c.9,2.05,3.1,4.42,5.4,4.83h0c.2.41.4.82.7,1.23h0c-3.1.72-6.1.51-8.5-1.85-2.2-2.16-3.2-5.13-3-8.21.2-3.49.5-7.6,2.2-10.68.9-1.64,2.1-3.08,3.4-4.42.7-.72,1.5-1.23,2.3-1.75.6-.72,1.3-1.33,2-1.64-.1.62-.2,1.03-.2,1.54Z"/>
      <path class="cls-1" d="m846.16,1044.33c.2.72.5,1.33.8,1.95.4,1.13,1.2,2.05,2.4,2.77,2.3-1.13,2.8-2.16,1.6-3.08-.3-.31-.1-.72.2-.82.5-.31,1-.31,1.4-.1.1,0,.2,0,.4.1l.1.1c.9.41,1.6,1.33,2.1,2.05,1.4,2.46.5,4.62-1.2,6.57.1.1.1.31-.1.51-.7.92-3.5,1.13-3.2-.62.1-.31.4-.62.6-.82.4-.41.7-.92,1-1.44.8-1.54,1.5-3.8.4-5.13-.1-.1-.2-.21-.4-.31h0c1,1.64.7,4.21-1.6,4.42-3.6.41-4.8-4-5.8-6.67-.1-.41.2-.72.5-.72.2.31.5.72.8,1.23Z"/>
    </g>
    <g>
      <path class="cls-2" d="m957.56,437.92c0,122.9-.1,309.78-.5,330.52l-3.1-.1c.5-29.67.6-399.31.4-435.35h3.1c0,10.78.1,51.95.1,104.94Z"/>
      <path class="cls-1" d="m938.96,298.59c.8.41,1.7.82,2.5.82.7.1,1.4,0,1.9-.51s.5-2.05,1.4-2.36c-.1.21-.3.51-.4.82-.1.41-.2.72-.1,1.13.2.72.7,1.64,1.4,1.85.1,0,.2,0,.2-.1,0-.72.1-1.13.6-1.64.5-.41,1.1-.62,1.7-.72,1.1-.1,2.4,0,3.4.41s2,.92,2.8,1.75c.3.31.5.62.8.92-1.3-.72-2.8-1.23-4.3-1.33-1.2-.1-2.3-.1-3.5.1-.4.1-.9.1-1.1.51-.4.1-.7.21-1,.41-1.1.62-1.8,1.64-2.2,2.77-.2.41-.3.82-.4,1.23,0,.21,0,.41-.1.62v.62c.2,3.49,2.9,6.06,5.1,4.93,2.4-1.23,1.2-3.9-.5-3.7,0,0-.7-.21-.9.51-.3.72-1.3-.41-.8-1.64s1.7-3.9,7.4-1.23c6,2.87,9.6,9.24,2.9,19.82-4.3,6.78-1.6,8.52.6,8.01.1,0,.2,0,.3-.1.6-.21,1-.51,1.3-.92,1.7-.92,4.1-.82,5.9-.51,1.3.21,2.4,1.03,3.3,1.95,1.1,1.13,1,3.59-1,3.29-.6-.1-1.1-.51-1.5-.92.7-.41.3-1.64-.5-1.33-.5.21-.6.31-1,.62-.2.21-.3.62-.1.82,1,1.64,3,2.67,4.9,1.95,2-.82,1.5-3.39.6-4.83-2.2-3.39-8.3-4.42-11.7-2.05-1,0-2.2-.21-1.8-1.85.5-2.05,3.3-5.13,4.6-10.47,0,0,0,.1.1.1-.3,1.03-.5,2.16-.1,3.08.2.41,1.4,1.75,1.9,1.03.3-.51-.2-1.03-.7-.82-.3-.82-.1-1.95-.1-2.77,0-.51.2-1.13.4-1.64.2-.31.4-.62.7-.92.1-.1.2-.21.4-.31h.1c.3-.1.5-.31.8-.41s.6-.21,1-.1c.2.72.1,1.03-.3.92-.1,0-.1.1-.1.21s.1.21.3.31l.1.1h0c.3.1.6.1.8,0,.8-.21,1-.82,1-1.54h0c.3.1.6.31.8.62.2.21.7.82.8,1.33-.3-.21-.6,0-.7.41-.1.82.6,1.23,1.3,1.03.9-.21,1.6-1.23,1.7-2.16,0-.21,0-.51-.1-.72,0-.92-.3-1.95-.9-2.67-.8-.92-2.1-1.23-3.3-1.13,0,0,0-.1-.1-.1v-.1s0-.1-.2-.1c-.4-.51-1-.92-1.8-.92h-.4c0-2.46.4-4.31,1.9-6.67.6-.92,3.6-3.59,3.5-1.13-.1.92,1.3.92,1.4,0,.3-4.21-3.9-6.78-7.6-4.62-2,1.23-3.2,3.08-3.4,5.54v1.23c-.6-1.13-1.4-2.05-2.3-2.98-.3-.31-.6-.51-.9-.72-.2-.62-1.1-2.36-2.5-3.49-1.5-1.23-3.4-1.95-5.2-2.67-.9-.41-1.9-.82-2.7-1.44-.7-.62-1.6-1.13-2.3-1.85-.7-.72-1.5-1.54-2.1-2.36-.7-.92-1-1.85-1.1-2.98,0-.1-.1-.21-.2-.1-.3.31-.4.82-.4,1.23-.1.72-.1,1.33,0,2.05.1,1.33.3,2.57,1.1,3.8.3.41.6.92,1,1.23.3.21.6.31.5.62,0,.31-.3.41-.5.62-.6.62-1.1,1.13-2,1.23-.7.1-1.3.1-2,.1-.1,0-.2.1-.1.21.4.31,1.4.62,1.8.82Zm26.3,14.07c.1-.1.1-.21.2-.31,1-.1,2.1,0,3,.72.6.41.9,1.13,1.1,1.85-.2-.51-.6-.92-.9-1.13-1.2-.82-2.4-.92-3.7-.51,0-.21.2-.41.3-.62Zm-8.2-9.75c.8.92,1.5,1.85,2,2.98.1.92.4,1.85.8,2.87.4.92,0,2.16.2,3.18-.1.21.3.41.2.62-.1.31-.1.62-.2.92v-1.54c-.2-5.03-2.7-8.11-5.4-9.86-.1-.21-3.4-2.46-6.8-2.16-.3,0-.7.1-1,.1.6-.21,1.7-.21,1.9-.21,1.1,0,2.2,0,3.2.31,2.1.41,3.7,1.33,5.1,2.77Z"/>
      <path class="cls-1" d="m937.36,803.04c0,.1,0,.21.1.21.7,0,1.3,0,2,.1.9.1,1.4.62,2,1.23.2.21.4.31.5.62,0,.31-.3.41-.5.62-.4.31-.7.82-1,1.23-.8,1.13-1,2.36-1.1,3.8-.1.72-.1,1.33,0,2.05.1.41.1.92.4,1.23.1.1.2,0,.2-.1.1-1.13.4-2.05,1.1-2.98.6-.82,1.4-1.64,2.1-2.36s1.5-1.23,2.3-1.85c.8-.72,1.8-1.13,2.7-1.44,1.8-.72,3.7-1.44,5.2-2.67,1.4-1.13,2.3-2.87,2.5-3.49.3-.21.6-.41.9-.72.9-.92,1.7-1.85,2.3-2.98v1.23c.1,2.46,1.4,4.31,3.4,5.54,3.7,2.16,7.9-.41,7.6-4.62-.1-.92-1.4-.92-1.4,0,.1,2.46-2.9-.1-3.5-1.13-1.5-2.36-1.9-4.31-1.9-6.67h.4c.8,0,1.3-.41,1.8-.92.1-.1.2-.1.2-.1v-.1s0-.1.1-.1c1.2.1,2.4-.21,3.3-1.13.6-.72.9-1.75.9-2.67.1-.31.1-.51.1-.72-.1-.92-.7-1.95-1.7-2.16-.7-.21-1.4.21-1.3,1.03.1.51.4.72.7.41,0,.41-.6,1.03-.8,1.33-.3.31-.5.51-.8.62h0c-.1-.72-.3-1.33-1-1.54-.2-.1-.5-.1-.8,0h0s-.1,0-.1.1l-.3.31c0,.1,0,.21.1.21.4-.1.5.21.3.92-.4.1-.7.1-1-.1-.3-.1-.5-.21-.8-.41h-.1c-.1-.1-.3-.21-.4-.31-.3-.31-.5-.62-.7-.92-.2-.51-.4-1.03-.4-1.64,0-.72-.2-1.85.1-2.77.5.21,1-.31.7-.82-.5-.72-1.7.62-1.9,1.03-.4.92-.2,2.05.1,3.08,0,0-.1,0-.1.1-1.3-5.24-4.1-8.42-4.6-10.47-.4-1.64.8-1.95,1.8-1.85,3.4,2.36,9.6,1.33,11.7-2.05.9-1.44,1.4-4-.6-4.83-1.8-.82-3.9.21-4.9,1.95-.2.31-.1.62.1.82.4.31.5.41,1,.62.8.31,1.1-.92.5-1.33.4-.41.9-.82,1.5-.92,2-.31,2,2.16,1,3.29-.9.92-2,1.75-3.3,1.95-1.7.31-4.1.31-5.9-.51-.3-.41-.7-.82-1.3-.92-.1-.1-.2-.1-.3-.1-2.1-.51-4.9,1.13-.6,8.01,6.6,10.47,3.1,16.84-2.9,19.82-5.7,2.77-6.9,0-7.4-1.23s.5-2.26.8-1.64c.3.72.9.51.9.51,1.7.21,2.9-2.46.5-3.7-2.2-1.13-4.9,1.33-5.1,4.93v.62c0,.21,0,.41.1.62.1.41.2.82.4,1.23.4,1.13,1.2,2.16,2.2,2.77.3.21.7.31,1,.41.2.41.7.41,1.1.51,1.1.21,2.3.21,3.5.1,1.5-.1,3-.62,4.3-1.33-.3.31-.5.62-.8.92-.8.72-1.8,1.33-2.8,1.75s-2.3.51-3.4.41c-.6-.1-1.2-.21-1.7-.72s-.6-.92-.6-1.64c0-.1-.1-.21-.2-.1-.7.21-1.3,1.13-1.4,1.85-.1.41,0,.72.1,1.13.1.31.3.51.4.82-.8-.21-.9-1.75-1.4-2.36-.5-.51-1.2-.62-1.9-.51-.9.1-1.8.51-2.5.82-.6,0-1.6.31-1.8.82Zm27.4-15.71c1.2.31,2.5.21,3.7-.51.4-.21.7-.62.9-1.13-.2.72-.5,1.33-1.1,1.85-.9.72-1.9.82-3,.72,0-.1-.1-.21-.2-.31.1-.21-.1-.41-.3-.62Zm-12.7,13.14c-1.1.21-2.2.31-3.2.31-.2,0-1.3,0-1.9-.21.4.1.7.1,1,.1,3.3.31,6.6-1.95,6.8-2.16,2.7-1.75,5.2-4.83,5.4-9.86v-1.54c0,.31.1.62.2.92.1.21-.3.41-.2.62-.1,1.03.2,2.16-.2,3.18s-.7,1.95-.8,2.87c-.5,1.03-1.2,2.05-2,2.98-1.5,1.44-3.1,2.36-5.1,2.77Z"/>
    </g>
    <g>
      <path class="cls-1" d="m970.46,107.81c-1.4-3.29-3.4-6.26-5.7-8.93,2.8-5.96,3.2-13.04,1.2-19.3-.8-2.57-2-4.83-3.4-6.88,11.7-8.32,17.6-28.44,7.5-39.22-9-9.55-26.2-10.27-28.7,5.85-.9,5.75,1.6,10.47,8,10.06,5.7-.41,6.8-5.44,7-10.37.1-2.36-3.5-2.05-3.6.41-7.3,3.08-9.5,1.85-6.6-3.59,4-5.24,8.6-6.88,13.8-4.72,3.3,1.13,6.8,3.59,8.8,6.37,5.9,8.11,2.1,21.66-4.2,28.75-1.3,1.44-2.7,2.67-4.3,3.7-4.2-4.31-9.8-7.08-15.9-8.73-8.8-2.46-17.5-2.46-25.9.51-.5-.31-1.6-1.33-2.1-1.95l-.6-.62h0s-.5-.51-.8-1.13c2.7-8.73,2.9-17.25.4-26.29-1.7-6.26-4.3-11.81-8.5-16.12,1-1.64,2.2-3.08,3.6-4.42,6.8-6.47,20-10.47,28-4.62,2.8,2.05,5.2,5.65,6.3,9.04,2.1,5.24.7,9.96-4.4,14.17-5.3,2.98-6.5.72-3.5-6.78,2.3-.1,2.7-3.8.3-3.7-4.8.21-9.7,1.44-10,7.29-.4,6.47,4.3,9.04,9.9,8.01,4.2-.72,7.3-2.57,9.2-5.03,5.3-6.67,3-17.87-3.9-24.44-10.6-10.17-30.2-3.9-38.1,8.21-2-1.44-4.2-2.57-6.7-3.39-6.2-1.95-13.1-1.54-18.8,1.44-2.6-2.36-5.5-4.31-8.8-5.75-15.6-6.98-44.5,4.72-43.4,25.46.2,4.72,2.5,12.63,8.5,11.19,5.7-1.44,5.3-8.73.1-9.96-1.3-.31-2.4.31-3,1.13.1-3.59,1-8.42,1.4-9.34,1.3-2.77,3.1-4.93,5.3-6.98,4.3-4,10.4-6.88,16.1-7.91,6.7-1.23,13.8.92,19.4,5.03-1.9,1.64-3.6,3.59-5,5.96-4.9,8.62,2.8,17.97,11.6,18.17.7,0,2.2-.21,4-.62-1.1,21.97-23.4,19.3-21.7,3.29.3-2.98,2.1-5.54-.5-8.01-5-4.72-9.8,1.75-10.7,6.47-1.5,8.11.9,4.93-4.3,4-1.4-.31-3.1-.21-4.5.31-2.7,1.03-4.4,3.08-5.2,5.85-.9,3.29.1,7.29,1.9,9.96,1.6,2.36,3.3,2.98,5.2,3.59-.6.31-1.2.51-1.4.62-1.7.92-2.2,3.8-.4,4.83,6,3.59,13.7,4.83,21.1,3.9-.7,4.72,1.8,7.5,5.2,9.14,1,8.01,1,16.22,1.9,24.13,0,.41.4.92.4.92.2.21.5.41.9.41,7.8.82,15.8.82,23.6,1.75,1.6,3.49,4.3,6.06,8.9,5.24-.9,7.7.5,15.5,4,21.66,1.1,1.85,3.8,1.33,4.7-.51.1-.21.3-.82.6-1.44.6,1.95,1.3,3.7,3.6,5.34,2.7,1.85,6.5,2.77,9.7,1.85,2.7-.82,4.7-2.57,5.7-5.44.5-1.44.5-3.18.3-4.72-1-5.24-4.1-2.77,3.8-4.42,4.6-.92,10.8-5.96,6.1-11.09-2.5-2.67-4.9-.82-7.8-.41-15.5,1.85-18.5-20.95,3-22.28-.4,1.85-.5,3.49-.5,4.11.3,9.04,9.4,16.84,17.8,11.71,2.3-1.44,4.2-3.18,5.8-5.13,4.1,5.65,6.2,12.94,5.2,19.92-.9,5.75-3.6,12.12-7.5,16.63-2,2.26-4.1,4.21-6.7,5.54-.9.51-5.6,1.44-9.1,1.54.9-.72,1.4-1.75,1.1-3.08-1.3-5.34-8.4-5.65-9.7.21-1.4,6.16,6.3,8.42,11,8.62,19.9.72,30.9-29.06,24-44.97Zm-39.6-43.12c7.8-.1,17.7,2.26,24,7.6-4.8,1.54-10,1.75-14.8,1.13-3.4-.51-11-3.8-16.9-7.7,2.5-.62,5.1-.92,7.7-1.03Zm-18.7-18.89c0,2.67-.3,5.34-.9,8.01-3.9-6.06-7.2-13.76-7.7-17.25-.7-4.93-.6-10.37.9-15.2,5.3,6.26,7.7,16.33,7.7,24.44Zm-34.6-11.81c-1.6-1.33-6.2-6.26-2.3-11.29.6-1.95,1.6-3.49,3.1-4.83,3.3,3.49,5.6,7.8,6.2,12.42.2,1.44.3,2.77.4,4.11-3.3.41-6.5.31-7.4-.41Zm13.1-1.13c-.5-2.67-1.3-5.34-2.4-7.8,1.1-.21,2.3-.21,2.9.1,2.3.82,1.6,4.52.8,6.47-.1.41-.6.92-1.3,1.23Zm-20.3,40.15c-.1-.21,0-1.03.2-1.85,7.3-2.36,13.7-7.08,17.1-14.17,3.3-6.88,4.3-14.27,3.4-21.36.3-.21.5-.31.7-.51,2.1-2.05,3.4-6.37,2.7-9.24-.8-2.98-4.3-3.49-7-2.57-1.4-2.87-3.1-5.44-5-7.91,6.1-2.46,13.8-1.13,18.8,2.67.1.1.2.1.3.21-2.9,7.8-2.5,17.04-.3,24.75,1.2,4,4.2,11.81,8,17.15-3.5,8.11-9.9,14.58-18.9,16.63-4.2.92-9.8,2.16-14.1,1.03-6.7-1.44-5.9-4.83-5.9-4.83Zm4.4,30.6c-.8-6.98-.8-13.86-1.5-20.74,2.2.51,4.5.62,6.5.62,6.3,0,12.7-.82,17.8-3.59-2.3,5.54-3.3,11.91-3.2,18.38,0,2.05.2,4.42.7,6.67-6.7-.62-13.5-.72-20.3-1.33Zm45.4-13.66c-6.9,3.59-11.4,10.27-13.6,17.76-.8.21-1.6.31-1.8.21,0,0-3.3.82-4.8-5.96-1.2-4.42,0-10.17.9-14.48,1.9-9.24,8.1-15.91,15.9-19.61,5.2,3.8,12.8,6.78,16.8,8.01,7.5,2.16,16.4,2.46,24.1-.62.1.1.2.21.2.31,3.8,5.13,5.1,13.04,2.8,19.3-2.4-1.95-4.9-3.7-7.7-5.03.9-2.77.4-6.37-2.6-7.19-2.8-.72-7,.62-8.9,2.87-.2.21-.3.41-.5.72-6.9-.92-14.1.21-20.8,3.7Zm23.5-3.29c.4-.72.8-1.23,1.2-1.44,1.9-.82,5.5-1.54,6.3.82.2.62.3,1.95.1,2.98-2.4-1.03-5-1.85-7.6-2.36Zm10.1,15.71c-4.8,4-9.7-.62-11-2.26-.7-.92-.9-4.21-.6-7.5,1.3,0,2.6.1,4,.31,4.5.62,8.7,2.87,12.2,6.26-1.2,1.54-2.7,2.57-4.6,3.18Z"/>
      <path class="cls-1" d="m920.86,262.14c-1.7-11.4-3-42.1,15.4-52.88,5.9-3.49,13.2-4.83,15.8-8.42,1.7-3.08,3-10.17,1.7-13.35-.8-.72-3.8,2.05-4.7,2.46,2.3-10.88-3-27.52-15.9-24.44,6.7,6.16,7.2,15.81,3.4,22.9-3.6,6.88-33.6,38.81-15.7,73.72Z"/>
      <path class="cls-1" d="m946.36,296.64c-.2-.1-.4-.21-.7-.31-12.8-5.75-21.9-23.92-23.1-27.41-5.7-16.22-6.3-41.58,10.8-50.93,3.2-1.75,8.9-3.39,12.4-1.54,2,1.13-.1,2.67-2.1,3.9.6-.21,1.3-.31,2-.31,1.8-.1,3.6,0,5.4.41,2.9.51,6,1.85,7.8,4.31,1.7,2.26,2.7,5.65,2,8.52-.3,1.13-.9,2.57-1.9,3.29-1,.82-1.8.62-2.8.41-.6,2.87-1.9,6.67-5.5,5.34-.2-.1-.3-.31-.3-.41-.6-3.59.2-7.5-2.1-10.68-2.7-3.7-7.3-3.59-11.3-2.87-.9.21-2.2-.51-3.1-.31-.3.1-.6.21-.9.1,1,.72,1.9,1.75,2,2.87,0,.31,0,1.03-.3,1.03-3.9.31-6.6,1.64-8.5,5.44-.6,1.23-3.5,9.04-3,16.84.2,2.57,1.9,16.33,8.1,25.77,4.6,7.08,11.2,12.42,15.5,15.61-.1.41-.3.62-.4.92Z"/>
      <path class="cls-1" d="m932.36,227.84c-.1,0-.2-.1-.3-.1h.1l.2.1Z"/>
      <path class="cls-1" d="m901.36,227.02c-2,2.46-3.4,5.65-4.4,8.73-.6,1.85-2.2,4.93-1.5,6.98.1.31.5.41.8.21,1.8-1.64,3.4-3.29,5.3-4.83,2.6-2.05,4.9-2.05,8-2.05,1,0,1.9-.21,2.6.41.9.82.3,1.75.1,2.98-.2,1.95.1,3.9.4,5.96.8,4.93,3.2,8.62,6.2,12.42,1.5,1.95,3.1,3.59,5,5.13,1.2.92,2.5,2.05,4.1,1.95.4,0,.5-.51.3-.82-2.6-3.18-3.9-6.37-4.5-10.47-.6-3.7-.4-7.7-.3-11.4.1-3.59,1-6.98,1.3-10.47.4-3.7,1.9-7.29,3.4-10.68,2.9-6.47,6-13.04,7.1-20.02.5-3.18.7-6.47.2-9.75-.2-1.54-.2-4.11-1.2-5.54.1-.21.1-.31-.1-.51-.1-.1-.2-.21-.3-.41-.2-.31-.7-.31-.9.1-.8,2.57,0,5.24-.1,7.91-.1,3.9-1.4,7.8-2.9,11.4s-4.6,7.29-7.7,9.65c-1.8,1.44-3.7,2.46-6.1,2.57-2.5.1-3.9-.72-5.6-2.57-.3-.31-.7-.21-.9.1-1.2,2.36-.5,6.16.8,8.42.7,1.23,1.7,1.95,2.9,2.67,1,.51,2,.62,3,.92-2.7,1.44-6.5-2.36-9.1-2.46-2.3,0-4.4,1.64-5.9,3.49Z"/>
      <path class="cls-1" d="m902.26,133.48c-.1.21-.1.62.2.72,5.2,2.87,9.7,5.34,15.6,5.44,5.2.1,9.5-1.64,13.7-4.72,3.7-2.77,6.6-6.98,6.5-11.81,0-3.39-1.7-6.78-4.1-9.14-.5-.82-1-1.54-1.7-2.16-2.4-2.26-6.6-3.08-9.5-1.44-2.2,1.33-3.1,4.31-.9,6.06,1.3,1.03,2.7.72,2.8-.51.9,1.23,1.1,4.21,1.1,5.24.1,2.26-.6,4-2,5.75-2.2,2.77-5.8,5.34-9.3,6.06-5.5,2.87-11.6,1.03-16.8-2.67,1.3,1.23,2.9,2.26,4.4,3.18Zm7.2,3.29c1.8.41,3.6.62,5.6.41,8.8-.82,18.7-4.83,20.8-14.68.3-1.64.2-3.49-.3-5.34,1.3,2.16,2,4.72,1.7,7.29-.7,5.24-3.9,10.37-8.7,11.29-7.9,1.44-9.9,2.87-13.5,2.57-2.1,0-3.8-.72-5.6-1.54Z"/>
      <path class="cls-1" d="m888.66,207.31c0,.1,0,.21.1.31.4.41.9.82,1.4,1.23.5.51,1,1.03,1.6,1.44,1.3,1.03,2.6,1.75,4,2.16,3.9,1.85,8.2,2.57,12.5,1.54,1.3-.31,2.5-.82,3.7-1.44,1.4.51,3-.82,4.1-1.54,3.5-2.26,6.5-5.24,9.1-8.52,5.1-6.06,8.7-13.55,9.1-21.56.4-7.6-1-14.89-4.1-21.87-1.5-3.49-3.3-7.29-5.6-10.37-1.1-1.54-2.5-2.67-4-3.59-2-1.13-3.7-2.26-5.6-3.7-.4-.31-.8.1-.8.41-6-5.85-24.8-13.76-32.3-27.93-1.6-3.08-1.6-6.98-.7-10.37,1.1-4,5.9-4.62,8.2-1.03,1.1,1.75,1.3,4,1.4,6.06,0,.1,0,.31.1.41-.1.82-.5,1.44-1.5,1.95-.8.41-1.6.41-2.4,0-.6-.31-1.5-1.33-.8-1.95,1-.82-.2-2.57-1.2-1.64-2.6,2.36.1,5.96,3,5.96,1.5,0,3.1-.82,4-2.05.8-1.13.9-2.26.8-3.49h0c0-.21,0-.41.1-.51h0v-.21c0-.41,0-.72.1-1.13-.1-.62-.1-1.23-.1-1.75,0-.21,0-.41-.1-.51-1-3.39-3.1-6.26-6.8-7.19-5-1.33-7.4,3.7-8.1,8.01-1.1,6.16.9,12.42,4.4,17.66.5.51,1,1.03,1.5,1.44,3.2,3.08,6.7,5.54,10.1,8.11,2,1.13,3.8,2.26,5.5,3.8,20.5,13.66,24.6,31.01,18,48.87-7.9,21.46-17.6,17.66-21.8,15.71s-4.1-7.29-1.8-6.16,3.6-1.13,3.6-1.13c5-3.9,1.5-13.86-7.7-10.88-8,2.57-9.1,16.12-1,25.46Zm25.4,4c1.1-.72,2.1-1.54,3-2.26,9.3-7.6,12.2-21.77,12.1-22.69,2.5-11.29,1.6-25.57-10-39.02-1.2-1.44-2.5-2.77-3.7-4,.8.62,1.7,1.33,2.6,1.85,1.9,1.03,3.7,1.95,5.2,3.7,2.2,2.67,3.8,6.16,5.3,9.34,3,6.37,4.7,12.94,4.7,20.02,0,7.5-2.1,13.86-6.1,20.02-2.1,3.29-4.8,6.26-7.6,8.93-.6.51-3.4,3.08-5.5,4.11Z"/>
      <path class="cls-1" d="m907.06,134.2l.1.1c.2.21.3.51.5.72,1.3,1.33,3.5,2.36,4.6,2.98,2.2,1.23,4.7,2.46,7.3,2.46s5.4-.41,7.8-1.44c2-.82,4.4-3.08,4.8-5.44h0c.4-.21.9-.41,1.2-.72h0c.7,3.18.3,6.26-2,8.73-2.1,2.26-5.1,3.08-8,2.87-3.4-.31-7.4-.72-10.4-2.57-1.6-.92-2.9-2.26-4.2-3.59-.7-.72-1.2-1.54-1.6-2.36-.7-.62-1.3-1.33-1.6-2.16.5.31,1,.41,1.5.41Z"/>
      <path class="cls-1" d="m915.76,132.25c.7-.21,1.3-.41,1.9-.72,1.1-.41,2.1-1.23,2.7-2.36-1.1-2.36-2-2.98-3-1.75-.3.31-.7.1-.8-.21-.3-.51-.3-1.03-.1-1.44,0-.1,0-.21.1-.41l.1-.1c.5-.92,1.4-1.64,2.1-2.05,2.5-1.44,4.5-.41,6.4,1.33.1-.1.3-.1.5.1.9.82,1,3.59-.7,3.29-.3-.1-.6-.51-.8-.62-.4-.41-.9-.72-1.4-1.03-1.5-.82-3.7-1.64-5-.51-.1.1-.2.21-.3.41h0c1.6-1.03,4.1-.72,4.3,1.75.3,3.7-4,4.93-6.7,5.75-.4.1-.7-.21-.7-.51.5-.41.9-.62,1.4-.92Z"/>
      <path class="cls-1" d="m791.86,36.96c6.9-3.7,16.4-2.98,22.2,4,3.2-13.14-12.8-18.89-23.5-16.84.4-.92,3.1-3.9,2.5-4.72-3.1-1.44-10-.31-13,1.44-3.5,2.57-5,10.06-8.5,16.02-10.9,18.69-40.7,16.63-51.8,14.58,33.7,19.1,65.4-10.99,72.1-14.48Z"/>
      <path class="cls-1" d="m686.76,24.44c.1.21.2.41.3.72,5.3,13.25,22.8,23,26.1,24.33,15.7,6.26,40.4,7.39,49.8-9.96,1.8-3.29,3.5-9.04,1.7-12.73-1-2.05-2.6,0-3.8,2.05.2-.62.3-1.33.3-2.05.1-1.85,0-3.7-.3-5.54-.5-2.98-1.7-6.16-4-8.11-2.2-1.75-5.5-2.87-8.2-2.26-1.1.31-2.5.82-3.3,1.85s-.7,1.85-.5,2.87c-2.8.62-6.5,1.75-5.3,5.54.1.21.2.31.4.31,3.5.72,7.3,0,10.4,2.46,3.5,2.77,3.4,7.6,2.6,11.71-.2.92.5,2.26.2,3.18-.1.31-.2.62-.1.92-.6-1.03-1.7-1.95-2.8-2.16-.3,0-1,0-1.1.31-.4,4-1.8,6.67-5.5,8.62-1.2.62-8.9,3.39-16.4,2.67-2.5-.21-15.9-2.36-25-8.83-6.8-4.93-11.9-11.81-14.8-16.22-.2.1-.4.21-.7.31Z"/>
      <path class="cls-1" d="m756.96,66.02c-.1-2.67-3.6-6.67-2.2-9.34.3,1.03.3,2.16.8,3.08.6,1.23,1.3,2.26,2.5,3.08,2.1,1.33,5.8,2.26,8.1,1.03.4-.21.4-.62.2-.92-1.7-1.75-2.5-3.18-2.3-5.75.1-2.36,1.2-4.31,2.6-6.16,2.3-3.08,6-6.16,9.6-7.6,3.5-1.44,7.4-2.67,11.2-2.77,2.6,0,5.2.82,7.7,0,.4-.1.4-.62.2-.92-.1-.1-.2-.21-.4-.31-.2-.21-.4-.21-.5-.1-1.3-1.03-3.8-1.13-5.3-1.33-3.1-.62-6.3-.41-9.5,0-6.9.92-13.4,4-19.7,6.78-3.3,1.44-6.8,2.98-10.5,3.29-3.4.31-6.8,1.03-10.2,1.13-3.6,0-7.5.1-11.1-.51-4-.72-7-2.16-10-4.93-.3-.21-.8-.1-.8.31-.1,1.54,1,2.98,1.8,4.21,1.4,2.05,3,3.7,4.9,5.24,3.7,3.18,7.2,5.75,12,6.67,1.9.31,3.8.72,5.7.51,1.2-.1,2.1-.72,2.9.21.6.72.4,1.75.4,2.67-.1,3.18-.1,5.54-2.1,8.21-1.5,1.95-3.1,3.59-4.8,5.34-.2.21-.1.72.2.82,1.9.72,5-.82,6.8-1.44,3-1.03,6.1-2.36,8.6-4.31,1.7-1.44,3.3-3.59,3.2-6.16Z"/>
      <path class="cls-1" d="m847.66,78.04c-3.5-5.44-5.1-11.81-2.2-17.35.8-3.59,3.3-7.19,6.1-9.45,1.7-1.44,3.4-2.05,5.7-1.95,1.1.1,4,.31,5.1,1.23-1.2.1-1.5,1.54-.5,2.87,1.7,2.26,4.6,1.44,5.9-.82,1.7-2.98,1-7.29-1.2-9.86-.6-.62-1.3-1.23-2.1-1.75-2.3-2.57-5.5-4.31-8.8-4.42-4.7-.1-8.9,2.67-11.7,6.47-3.1,4.21-4.9,8.62-4.9,13.96,0,6.16,2.3,10.78,5,16.22.1.31.5.31.7.31.7,1.44,1.7,3.08,2.9,4.52Zm-7.5-17.76c-.2-3.8,1.2-5.75,2.8-13.86,1-4.93,6.1-8.11,11.2-8.73,2.5-.31,5,.51,7.1,1.85-1.8-.51-3.6-.72-5.1-.41-9.6,1.85-13.7,12.01-14.7,20.95-.2,2.05-.1,3.9.3,5.75-.9-1.75-1.5-3.59-1.6-5.54Z"/>
      <path class="cls-1" d="m797.26,85.02c3-9.45-6.5-13.14-10.5-8.11,0,0-2.2,1.23-1.2,3.7,1,2.36-4.2,2.36-5.9-1.95-1.8-4.42-5.3-14.37,15.8-22.08,17.6-6.37,34.3-1.75,47.2,19.61,1.5,1.75,2.5,3.7,3.6,5.75,2.4,3.49,4.7,7.19,7.7,10.58.5.51.9,1.03,1.4,1.54,5.1,3.7,11.1,5.85,17.1,4.93,4.2-.72,9.1-3.08,8-8.21-.9-3.8-3.7-5.96-6.9-7.08-.2,0-.4,0-.5-.1-.6,0-1.2-.1-1.7-.21-.3.1-.7.1-1.1.1h-.7c-1.2-.1-2.3-.1-3.4.72-1.2.92-2.1,2.46-2.1,4.11,0,2.98,3.3,5.85,5.7,3.29.9-.92-.7-2.16-1.6-1.23-.7.72-1.6-.21-1.9-.82-.4-.82-.3-1.64.1-2.46.5-.92,1.1-1.33,1.9-1.44.1,0,.2.1.4.1,2,.21,4.2.41,5.9,1.64,3.5,2.36,2.8,7.29-1.2,8.32-3.3.92-7.1.82-10.1-.92-13.6-7.91-20.9-27.41-26.5-33.78.3,0,.7-.41.4-.82-1.3-1.95-2.3-3.7-3.4-5.75-.9-1.64-2-3.08-3.4-4.21-3-2.36-6.6-4.31-10-5.96-6.7-3.29-13.8-4.93-21.2-4.62-7.8.21-15.2,3.8-21.2,8.83-3.2,2.67-6.1,5.65-8.5,9.14-.8,1.13-2.1,2.77-1.6,4.21-.6,1.23-1.2,2.46-1.5,3.7-1.1,4.31-.5,8.83,1.2,12.83.4,1.44,1.1,2.87,2.1,4.11.4.62.9,1.13,1.4,1.64.4.51.8,1.03,1.2,1.44.1.1.2.1.3.1,8.9,8.52,22,7.8,24.7-.62Zm-23.9-31.11c2.6-2.87,5.6-5.54,8.8-7.7,6.1-4,12.4-6.06,19.7-5.85,6.9.21,13.3,2.16,19.4,5.34,3,1.54,6.5,3.29,9,5.65,1.6,1.54,2.5,3.39,3.5,5.34.5,1.03,1.1,1.85,1.7,2.77-1.2-1.33-2.5-2.57-3.9-3.9-12.9-12.12-26.7-13.45-37.8-11.09-.9-.1-14.8,2.57-22.4,11.91-.8.92-1.6,1.95-2.3,3.08,1.1-2.05,3.7-4.83,4.3-5.54Z"/>
      <path class="cls-1" d="m844.06,68.49h0c-.3-.31-.6-.51-.8-.62-1.3-1.33-2.3-3.59-2.8-4.83-1.1-2.36-2.3-4.83-2.3-7.5s.6-5.54,1.6-8.01c.9-2.05,3.1-4.42,5.4-4.83h0c.2-.41.4-.82.7-1.23h0c-3.1-.72-6.1-.51-8.5,1.85-2.2,2.16-3.2,5.13-3,8.21.2,3.49.5,7.6,2.2,10.68.9,1.64,2.1,3.08,3.4,4.42.7.72,1.5,1.23,2.3,1.75.6.72,1.3,1.33,2,1.64-.1-.62-.2-1.03-.2-1.54Z"/>
      <path class="cls-1" d="m846.16,59.55c.2-.72.5-1.33.8-1.95.4-1.13,1.2-2.05,2.4-2.77,2.3,1.13,2.8,2.16,1.6,3.08-.3.31-.1.72.2.82.5.31,1,.31,1.4.1.1,0,.2,0,.4-.1l.1-.1c.9-.41,1.6-1.33,2.1-2.05,1.4-2.46.5-4.62-1.2-6.57.1-.1.1-.31-.1-.51-.7-.92-3.5-1.13-3.2.62.1.31.4.62.6.82.4.41.7.92,1,1.44.8,1.54,1.5,3.8.4,5.13-.1.1-.2.21-.4.31h0c1-1.64.7-4.21-1.6-4.42-3.6-.41-4.8,4-5.8,6.67-.1.41.2.72.5.72.2-.31.5-.72.8-1.23Z"/>
    </g>
    <path d="m772.56,1024.62c.5,2.57,1.5,4.93,3.1,6.78,2.3,2.67,5.6,4.21,9.2,4.21s6.9-1.54,9.3-3.8c2.4-2.26,4-5.34,4.2-8.83.3-3.39-.9-6.67-2.9-9.34-2-2.57-5.1-4.62-8.6-5.24-3.6-.62-7,.31-9.7,2.67-2.3,1.85-3.9,4.62-4.6,7.91-.1.62-.3,1.33-.3,1.95.1,1.23.1,2.57.3,3.7Z"/>
    <path d="m176.76,1022.98c.2,3.49,1.9,6.47,4.2,8.83,2.4,2.26,5.7,3.8,9.3,3.8s6.9-1.54,9.2-4.21c1.6-1.85,2.7-4.11,3.1-6.78.2-1.23.3-2.46.2-3.7-.1-.72-.2-1.33-.3-1.95-.7-3.18-2.3-5.96-4.6-7.91-2.7-2.26-6.1-3.29-9.7-2.67-3.6.62-6.6,2.67-8.6,5.24-1.9,2.67-3.1,5.96-2.8,9.34Z"/>
    <path class="cls-2" d="m407.26,1075.75c140.3,0,257.3.21,281,.62l-1.5,3.8c-33.8-.62-358-.72-399.1-.51l-1.1-3.8c12.3-.1,60.3-.1,120.7-.1Z"/>
    <path class="cls-2" d="m407.26,28.75c140.3,0,257.3-.21,281-.62l-1.5-3.8c-33.8.62-358,.72-399.1.51l-1.1,3.8c12.3,0,60.3.1,120.7.1Z"/>
  </g>
</svg>