<?xml version="1.0" encoding="UTF-8"?>
<svg id="Layer_1" data-name="Layer 1" xmlns="http://www.w3.org/2000/svg" viewBox="0 0 754.09 1331.58">
  <defs>
    <style>
      .cls-1 {
        fill: #fff;
      }
    </style>
  </defs>
  <path class="cls-1" d="m524.46,4.27c-7.33,6.8-7.47,11.47-.67,26.53,40.53,89.87,60.53,200.4,58.27,321.87-1.73,92.67-16.8,188.67-40.67,259.47-27.73,82.13-66.13,139.2-112.13,166.53-28.27,16.8-62.4,19.2-92.53,6.67-48-20-92.93-80.67-121.73-164.53-17.2-50.13-27.2-96.93-34.53-161.47-4.93-44.53-5.87-55.73-7.33-92.8-4.53-110.53,12.53-224.13,46.27-309.6,4-10.4,9.07-22.27,11.07-26.27,4.8-9.87,5.73-14.13,4-19.47-2.27-6.53-7.07-9.87-14.67-9.87s-11.6,3.07-30.27,24.27c-32.93,37.33-54.13,69.6-81.73,124.4-34.67,68.67-56.93,130.4-76.67,212-14,58-25.33,130.67-30.13,192.8-2,27.6-.8,122.4,2,155.87,12.53,145.73,42.67,267.2,93.33,376,44.13,94.67,98.4,164.93,158.13,204.93,80,53.33,171.47,53.33,253.33-.13,18.4-12.13,30.53-22.27,49.33-41.6,88.13-90.53,149.87-238.13,177.87-425.2,1.07-7.33,3.2-21.2,4.67-30.67,16.67-107.6,19.2-256.8,6-347.33-21.33-146.13-74.8-287.2-144.93-382.67-14.93-20.4-37.2-45.47-50.67-57.2-7.07-6.27-8.27-6.8-14.4-6.8-5.6,0-7.33.67-11.2,4.27M167.13,107.87c-6.13,17.73-16.8,64-22.53,98.13-9.07,54.93-12,92-12,153.33.13,71.2,3.73,106,17.33,167.73,24.93,112.8,72,206.13,128.53,254.8,31.73,27.33,55.47,38.67,88.13,42.13,53.47,5.47,105.6-23.07,150.4-82.27,23.87-31.6,48-78.27,65.07-126.4,15.73-44,28.67-96.8,34.27-139.33,13.2-101.07,8.8-214.27-11.87-310-3.6-16.4-9.33-39.73-10.8-44.13-2.27-6.4,2.67,1.73,12.4,20.13,42.27,79.87,72,174.53,88.27,281.33,16.4,107.47,20,144.67,21.07,218.67,1.33,88.67-3.6,151.6-16.93,218-33.87,168.93-102.53,306.13-189.33,378.4-36,29.87-65.73,45.47-101.6,53.2-15.47,3.33-49.47,3.33-64.93,0-62.53-13.47-118.13-55.2-169.07-127.07-50.8-71.6-90.8-176.67-112.27-294.4-12.8-70-17.47-120-18.4-198.8-1.2-97.73,3.47-181.47,14.4-253.2,16.27-106.67,47.47-205.73,87.6-277.2,11.33-20.4,23.2-39.73,23.87-39.07.27.27-.4,2.93-1.6,6"/>
  <path class="cls-1" d="m182.33,990.13c-7.33,2.13-17.33,10.67-21.87,18.4-8,13.6-9.33,37.33-3.2,56.8,3.33,11.07,26.67,57.73,34.67,69.47,14.8,21.87,57.87,51.87,80.4,56,21.47,3.87,38.53-6.8,44.27-27.73,4.4-16.4,1.47-36.53-11.2-74.4-5.87-17.47-13.6-29.6-32.27-50.8-22.67-25.87-33.33-35.73-44.13-41.07-17.6-8.53-33.33-10.8-46.67-6.67m357.2-.13c-4.27,1.07-12.27,4.27-18,6.93-8.93,4.53-12.27,7.33-27.87,23.73-38.27,40.53-44.13,50.27-55.87,93.33-4.27,15.73-5.2,20.8-5.2,32,0,14.93,1.47,21.07,7.6,30.13,14.8,22.4,42.53,20.27,80.93-5.87,12.67-8.67,33.6-28.8,39.2-37.6,6.93-10.8,26.67-49.73,31.6-62,4.27-10.93,4.53-12,4.53-30,0-16.53-.4-19.6-3.2-26.53-3.73-9.47-12.4-18.53-21.2-22.4-8-3.6-22.4-4.27-32.53-1.73"/>
</svg>